{"glyphs":{"0":{"x_min":14.16,"x_max":618.65,"ha":632.81,"o":"m 618.65 349.61 l 618.65 349.61 q 618.65 306.64 609.13 264.16 q 599.61 221.68 581.54 182.62 q 563.48 143.55 537.35 109.86 q 511.23 76.17 477.54 51.27 q 443.85 26.37 403.56 12.21 q 363.28 -1.95 316.89 -1.95 l 316.89 -1.95 q 270.02 -1.95 229.49 12.21 q 188.96 26.37 155.52 51.27 q 122.07 76.17 95.7 109.86 q 69.34 143.55 51.27 182.62 q 33.2 221.68 23.68 264.4 q 14.16 307.13 14.16 349.61 l 14.16 349.61 q 14.16 392.09 23.68 435.06 q 33.2 478.03 51.27 517.09 q 69.34 556.15 95.7 590.09 q 122.07 624.02 155.52 648.93 q 188.96 673.83 229.74 687.99 q 270.51 702.15 316.89 702.15 l 316.89 702.15 q 363.28 702.15 403.56 687.99 q 443.85 673.83 477.54 648.93 q 511.23 624.02 537.35 590.09 q 563.48 556.15 581.54 517.09 q 599.61 478.03 609.13 435.06 q 618.65 392.09 618.65 349.61 m 412.6 334.96 l 412.6 334.96 q 412.6 356.45 406.74 382.81 q 400.88 409.18 388.67 432.13 q 376.46 455.08 357.42 470.7 q 338.38 486.33 312.01 486.33 l 312.01 486.33 q 285.16 486.33 266.11 470.7 q 247.07 455.08 234.62 432.13 q 222.17 409.18 216.31 382.81 q 210.45 356.45 210.45 334.96 l 210.45 334.96 q 210.45 313.48 216.31 287.11 q 222.17 260.74 234.62 237.79 q 247.07 214.84 266.11 199.22 q 285.16 183.59 312.01 183.59 l 312.01 183.59 q 338.38 183.59 357.42 199.22 q 376.46 214.84 388.67 237.79 q 400.88 260.74 406.74 287.11 q 412.6 313.48 412.6 334.96"},"1":{"x_min":-14.65,"x_max":366.21,"ha":388.18,"o":"m 144.53 711.91 l 366.21 702.15 l 337.89 7.81 l 125 17.58 l 136.72 479.49 l 58.59 425.78 l -14.65 592.77 l 144.53 711.91"},"2":{"x_min":13.67,"x_max":492.19,"ha":509.28,"o":"m 492.19 459.96 l 492.19 459.96 q 492.19 420.9 478.03 385.5 q 463.87 350.1 440.67 319.09 q 417.48 288.09 387.94 261.96 q 358.4 235.84 328.13 214.84 l 328.13 214.84 l 482.42 214.84 l 470.7 11.72 l 13.67 27.34 l 13.67 205.08 q 39.55 213.87 68.12 226.32 q 96.68 238.77 124.27 254.88 q 151.86 271 176.51 291.02 q 201.17 311.04 219.97 334.72 q 238.77 358.4 249.76 386.23 q 260.74 414.06 260.74 446.29 l 260.74 446.29 q 260.74 464.84 254.15 479 q 247.56 493.16 235.84 502.69 q 224.12 512.21 208.74 516.85 q 193.36 521.48 175.78 521.48 l 175.78 521.48 q 161.13 521.48 146 518.31 q 130.86 515.14 116.21 509.28 q 101.56 503.42 88.62 494.87 q 75.68 486.33 65.43 475.59 l 65.43 475.59 l 22.46 666.99 q 40.53 685.06 63.96 697.27 q 87.4 709.47 113.28 717.04 q 139.16 724.61 166.02 728.03 q 192.87 731.45 218.75 731.45 l 218.75 731.45 q 276.37 731.45 326.17 710.69 q 375.98 689.94 412.84 653.56 q 449.71 617.19 470.95 567.38 q 492.19 517.58 492.19 459.96"},"3":{"x_min":8.79,"x_max":510.74,"ha":527.83,"o":"m 510.74 246.09 l 510.74 246.09 q 510.74 181.15 489.99 133.54 q 469.24 85.94 432.13 54.44 q 395.02 22.95 343.51 7.57 q 291.99 -7.81 230.47 -7.81 l 230.47 -7.81 q 202.64 -7.81 173.34 -2.44 q 144.04 2.93 115.23 12.21 q 86.43 21.48 59.33 34.18 q 32.23 46.88 8.79 61.52 l 8.79 61.52 l 27.34 257.81 q 45.9 245.12 68.85 233.64 q 91.8 222.17 116.46 213.13 q 141.11 204.1 166.26 198.73 q 191.41 193.36 214.84 193.36 l 214.84 193.36 q 228.52 193.36 242.92 195.56 q 257.32 197.75 269.04 203.61 q 280.76 209.47 288.33 220.21 q 295.9 230.96 295.9 248.05 l 295.9 248.05 q 295.9 258.79 286.13 268.07 q 276.37 277.34 262.7 283.94 q 249.02 290.53 234.38 294.19 q 219.73 297.85 209.96 297.85 l 209.96 297.85 q 203.13 297.85 193.6 297.12 q 184.08 296.39 174.32 294.92 q 164.55 293.46 155.52 290.77 q 146.48 288.09 141.6 284.18 l 141.6 284.18 l 144.53 423.83 q 152.83 422.85 160.16 422.36 q 167.48 421.88 175.78 421.88 l 175.78 421.88 q 192.87 421.88 212.89 425.05 q 232.91 428.22 250 436.28 q 267.09 444.34 278.56 458.5 q 290.04 472.66 290.04 495.12 l 290.04 495.12 q 290.04 511.23 281.25 521.24 q 272.46 531.25 259.52 536.62 q 246.58 541.99 231.45 543.95 q 216.31 545.9 204.1 545.9 l 204.1 545.9 q 164.55 545.9 126.22 532.23 q 87.89 518.55 58.59 492.19 l 58.59 492.19 l 17.58 669.92 q 62.5 706.54 119.87 725.83 q 177.25 745.12 235.35 745.12 l 235.35 745.12 q 288.57 745.12 337.16 729.74 q 385.74 714.36 422.85 684.33 q 459.96 654.3 481.93 610.35 q 503.91 566.41 503.91 508.79 l 503.91 508.79 q 503.91 492.19 499.02 475.1 q 494.14 458.01 485.84 441.89 q 477.54 425.78 466.31 411.87 q 455.08 397.95 442.38 387.7 l 442.38 387.7 q 462.89 378.42 476.07 362.79 q 489.26 347.17 497.07 328.13 q 504.88 309.08 507.81 287.84 q 510.74 266.6 510.74 246.09"},"4":{"x_min":0,"x_max":521.48,"ha":539.06,"o":"m 521.48 364.26 l 521.48 234.38 l 478.52 233.4 l 469.73 22.46 l 249.02 2.93 l 260.74 228.52 l 0 222.66 l 72.27 651.37 l 256.84 651.37 l 203.13 352.54 l 267.58 354.49 l 286.13 724.61 l 498.05 724.61 l 483.4 362.3 l 521.48 364.26"},"5":{"x_min":12.7,"x_max":520.51,"ha":530.76,"o":"m 520.51 246.09 l 520.51 246.09 q 520.51 182.62 497.8 135.74 q 475.1 88.87 436.04 58.11 q 396.97 27.34 344.24 12.21 q 291.5 -2.93 231.45 -2.93 l 231.45 -2.93 q 202.64 -2.93 174.8 1.22 q 146.97 5.37 119.87 12.45 q 92.77 19.53 66.16 28.81 q 39.55 38.09 12.7 48.83 l 12.7 48.83 l 31.25 243.16 q 48.83 233.4 68.85 225.1 q 88.87 216.8 110.11 210.94 q 131.35 205.08 153.08 201.66 q 174.8 198.24 195.31 198.24 l 195.31 198.24 q 207.52 198.24 225.1 200.44 q 242.68 202.64 258.79 208.74 q 274.9 214.84 286.38 225.34 q 297.85 235.84 297.85 252.93 l 297.85 252.93 q 297.85 269.04 288.82 280.76 q 279.79 292.48 265.38 300.05 q 250.98 307.62 232.91 312.01 q 214.84 316.41 196.53 318.85 q 178.22 321.29 161.87 321.78 q 145.51 322.27 134.77 322.27 l 134.77 322.27 q 112.79 322.27 90.09 320.31 q 67.38 318.36 45.9 312.5 l 45.9 312.5 l 65.43 707.03 l 460.94 717.77 l 471.68 513.67 l 226.56 527.34 l 221.68 440.43 q 243.65 445.8 265.63 448.49 q 287.6 451.17 309.57 451.17 l 309.57 451.17 q 354 451.17 392.33 436.77 q 430.66 422.36 459.23 395.51 q 487.79 368.65 504.15 330.81 q 520.51 292.97 520.51 246.09"},"6":{"x_min":15.63,"x_max":565.43,"ha":573.24,"o":"m 565.43 249.02 l 565.43 249.02 q 565.43 189.45 544.43 140.87 q 523.44 92.29 486.57 57.86 q 449.71 23.44 398.93 4.39 q 348.14 -14.65 289.06 -14.65 l 289.06 -14.65 q 240.72 -14.65 201.9 -1.46 q 163.09 11.72 132.57 35.16 q 102.05 58.59 80.08 90.82 q 58.11 123.05 43.7 160.64 q 29.3 198.24 22.46 240.23 q 15.63 282.23 15.63 325.2 l 15.63 325.2 q 15.63 377.93 23.44 427.98 q 31.25 478.03 47.61 521.97 q 63.96 565.92 89.84 603.03 q 115.72 640.14 151.37 666.5 q 187.01 692.87 233.15 707.76 q 279.3 722.66 336.91 722.66 l 336.91 722.66 q 357.91 722.66 379.88 720.95 q 401.86 719.24 423.83 714.84 q 445.8 710.45 466.55 703.13 q 487.3 695.8 505.86 684.57 l 505.86 684.57 l 491.21 492.19 q 456.54 509.28 416.26 518.31 q 375.98 527.34 337.89 527.34 l 337.89 527.34 q 307.62 527.34 285.64 518.31 q 263.67 509.28 248.54 492.68 q 233.4 476.07 224.85 452.88 q 216.31 429.69 213.87 401.37 l 213.87 401.37 q 246.09 419.92 282.71 430.66 q 319.34 441.41 357.42 441.41 l 357.42 441.41 q 400.39 441.41 438.48 428.22 q 476.56 415.04 504.64 390.14 q 532.71 365.23 549.07 329.59 q 565.43 293.95 565.43 249.02 m 379.88 234.38 l 379.88 234.38 q 379.88 249.51 373.29 261.47 q 366.7 273.44 356.2 281.98 q 345.7 290.53 332.03 295.17 q 318.36 299.8 304.69 299.8 l 304.69 299.8 q 291.02 299.8 277.83 295.17 q 264.65 290.53 254.15 281.98 q 243.65 273.44 237.06 261.47 q 230.47 249.51 230.47 234.38 l 230.47 234.38 q 230.47 219.73 237.06 207.76 q 243.65 195.8 254.15 187.5 q 264.65 179.2 277.83 174.56 q 291.02 169.92 304.69 169.92 l 304.69 169.92 q 318.36 169.92 332.03 174.56 q 345.7 179.2 356.2 187.5 q 366.7 195.8 373.29 207.76 q 379.88 219.73 379.88 234.38"},"7":{"x_min":8.79,"x_max":493.16,"ha":505.86,"o":"m 493.16 714.84 l 493.16 537.11 q 443.85 398.93 403.81 286.62 l 403.81 286.62 q 386.72 238.77 370.12 192.14 q 353.52 145.51 339.6 107.18 q 325.68 68.85 316.41 42.48 q 307.13 16.11 304.69 9.77 l 304.69 9.77 l 48.83 24.41 l 274.41 509.77 l 8.79 495.12 l 8.79 706.05 l 493.16 714.84"},"8":{"x_min":14.16,"x_max":557.13,"ha":571.29,"o":"m 557.13 215.82 l 557.13 215.82 q 557.13 176.27 546.39 145.02 q 535.64 113.77 516.85 89.6 q 498.05 65.43 472.41 48.34 q 446.78 31.25 416.26 20.26 q 385.74 9.28 352.05 4.15 q 318.36 -0.98 283.69 -0.98 l 283.69 -0.98 q 234.38 -0.98 186.28 12.21 q 138.18 25.39 99.85 52.49 q 61.52 79.59 37.84 120.12 q 14.16 160.64 14.16 215.82 l 14.16 215.82 q 14.16 238.28 19.53 260.99 q 24.9 283.69 35.16 304.2 q 45.41 324.71 61.04 341.31 q 76.66 357.91 97.17 369.14 l 97.17 369.14 q 64.94 397.95 48.83 435.3 q 32.71 472.66 32.71 515.63 l 32.71 515.63 q 32.71 565.92 54.93 603.76 q 77.15 641.6 113.04 667.24 q 148.93 692.87 193.85 705.81 q 238.77 718.75 283.69 718.75 l 283.69 718.75 q 313.48 718.75 343.51 712.89 q 373.54 707.03 401.37 695.8 q 429.2 684.57 453.37 667.48 q 477.54 650.39 495.36 627.69 q 513.18 604.98 523.44 576.9 q 533.69 548.83 533.69 515.63 l 533.69 515.63 q 533.69 472.66 517.58 435.3 q 501.46 397.95 469.24 369.14 l 469.24 369.14 q 516.11 344.73 536.62 306.15 q 557.13 267.58 557.13 215.82 m 364.75 468.75 l 364.75 468.75 q 364.75 484.86 357.67 497.8 q 350.59 510.74 338.87 520.02 q 327.15 529.3 312.74 534.18 q 298.34 539.06 283.69 539.06 l 283.69 539.06 q 268.55 539.06 253.91 534.18 q 239.26 529.3 227.54 520.02 q 215.82 510.74 208.74 497.8 q 201.66 484.86 201.66 468.75 l 201.66 468.75 q 201.66 452.64 208.74 439.7 q 215.82 426.76 227.54 417.97 q 239.26 409.18 253.91 404.3 q 268.55 399.41 283.69 399.41 l 283.69 399.41 q 298.34 399.41 312.74 404.3 q 327.15 409.18 338.87 417.97 q 350.59 426.76 357.67 439.7 q 364.75 452.64 364.75 468.75 m 363.77 239.26 l 363.77 239.26 q 363.77 255.37 356.69 268.31 q 349.61 281.25 338.38 290.04 q 327.15 298.83 312.74 303.71 q 298.34 308.59 283.69 308.59 l 283.69 308.59 q 269.04 308.59 254.64 303.71 q 240.23 298.83 228.52 290.04 q 216.8 281.25 209.72 268.31 q 202.64 255.37 202.64 239.26 l 202.64 239.26 q 202.64 223.63 209.72 210.94 q 216.8 198.24 228.52 189.45 q 240.23 180.66 254.64 175.78 q 269.04 170.9 283.69 170.9 l 283.69 170.9 q 298.34 170.9 312.74 175.78 q 327.15 180.66 338.38 189.45 q 349.61 198.24 356.69 210.94 q 363.77 223.63 363.77 239.26"},"9":{"x_min":12.7,"x_max":539.06,"ha":555.18,"o":"m 539.06 399.41 l 539.06 399.41 q 539.06 353.03 531.74 305.91 q 524.41 258.79 509.03 214.6 q 493.65 170.41 469.73 131.84 q 445.8 93.26 412.6 64.7 q 379.39 36.13 336.18 19.53 q 292.97 2.93 239.26 2.93 l 239.26 2.93 q 215.82 2.93 190.19 5.13 q 164.55 7.32 139.4 12.45 q 114.26 17.58 90.33 26.61 q 66.41 35.64 46.88 49.8 l 46.88 49.8 l 72.27 234.38 q 87.4 225.59 106.45 218.02 q 125.49 210.45 145.51 204.59 q 165.53 198.73 185.55 195.56 q 205.57 192.38 223.63 192.38 l 223.63 192.38 q 251.95 192.38 272.71 200.44 q 293.46 208.5 307.86 223.63 q 322.27 238.77 331.05 260.01 q 339.84 281.25 343.75 307.62 l 343.75 307.62 q 314.45 291.99 282.23 283.69 q 250 275.39 216.8 275.39 l 216.8 275.39 q 175.78 275.39 138.67 288.09 q 101.56 300.78 73.73 324.46 q 45.9 348.14 29.3 382.32 q 12.7 416.5 12.7 459.96 l 12.7 459.96 q 12.7 515.63 32.96 562.01 q 53.22 608.4 88.38 641.6 q 123.54 674.8 171.63 693.36 q 219.73 711.91 275.39 711.91 l 275.39 711.91 q 343.26 711.91 392.82 686.77 q 442.38 661.62 474.85 618.9 q 507.32 576.17 523.19 519.53 q 539.06 462.89 539.06 399.41 m 336.91 470.7 l 336.91 470.7 q 336.91 485.35 330.32 497.07 q 323.73 508.79 313.48 517.09 q 303.22 525.39 290.04 529.79 q 276.86 534.18 263.67 534.18 l 263.67 534.18 q 250.49 534.18 237.79 530.03 q 225.1 525.88 214.84 517.82 q 204.59 509.77 198.49 498.29 q 192.38 486.82 192.38 472.66 l 192.38 472.66 q 192.38 458.5 198.97 446.78 q 205.57 435.06 215.82 426.76 q 226.07 418.46 239.26 413.82 q 252.44 409.18 265.63 409.18 l 265.63 409.18 q 278.81 409.18 291.5 413.57 q 304.2 417.97 314.45 426.03 q 324.71 434.08 330.81 445.31 q 336.91 456.54 336.91 470.7"}," ":{"x_min":0,"x_max":0,"ha":195.31,"o":""},"!":{"x_min":24.9,"x_max":264.16,"ha":279.3,"o":"m 24.9 725.59 l 264.16 725.59 l 224.12 211.91 l 43.46 211.91 l 24.9 725.59 m 231.93 61.52 l 231.93 61.52 q 231.93 40.04 223.63 21.48 q 215.33 2.93 201.42 -10.99 q 187.5 -24.9 168.95 -32.96 q 150.39 -41.02 129.39 -41.02 l 129.39 -41.02 q 107.91 -41.02 89.36 -32.96 q 70.8 -24.9 56.88 -10.99 q 42.97 2.93 34.91 21.48 q 26.86 40.04 26.86 61.52 l 26.86 61.52 q 26.86 82.52 34.91 101.56 q 42.97 120.61 56.88 134.52 q 70.8 148.44 89.36 156.74 q 107.91 165.04 129.39 165.04 l 129.39 165.04 q 150.39 165.04 168.95 156.74 q 187.5 148.44 201.42 134.52 q 215.33 120.61 223.63 101.56 q 231.93 82.52 231.93 61.52"},"\"":{"x_min":3.91,"x_max":483.4,"ha":479.49,"o":"m 3.91 784.18 l 239.26 789.06 l 184.57 492.19 l 34.18 487.3 l 3.91 784.18 m 248.05 754.88 l 483.4 759.77 l 428.71 462.89 l 278.32 458.01 l 248.05 754.88"},"#":{"x_min":20.51,"x_max":577.15,"ha":606.45,"o":"m 577.15 501.95 l 559.57 373.05 l 471.68 375 l 460.94 296.88 l 545.9 297.85 l 527.34 166.02 l 441.41 166.02 l 429.69 81.05 l 269.53 83.01 l 283.2 166.02 l 235.35 166.02 l 223.63 102.54 l 81.05 105.47 l 90.82 166.02 l 20.51 165.04 l 42.97 295.9 l 113.28 295.9 l 129.88 382.81 l 56.64 383.79 l 80.08 510.74 l 152.34 508.79 l 164.06 583.98 l 302.73 575.2 l 291.02 506.84 l 341.8 506.84 l 363.28 625 l 506.84 620.12 l 490.23 502.93 l 577.15 501.95 m 320.31 378.91 l 270.51 379.88 l 255.86 295.9 l 305.66 296.88 l 320.31 378.91"},"$":{"x_min":29.79,"x_max":416.5,"ha":436.52,"o":"m 190.92 -70.31 l 143.07 -67.38 l 147.95 125 q 132.32 127.93 116.21 132.08 q 100.1 136.23 84.72 140.87 q 69.34 145.51 55.18 150.39 q 41.02 155.27 29.79 160.16 l 29.79 160.16 l 46.39 280.27 q 77.15 264.65 115.23 256.84 q 153.32 249.02 190.92 249.02 l 190.92 249.02 q 197.75 249.02 207.76 249.51 q 217.77 250 227.05 252.2 q 236.33 254.39 242.92 259.28 q 249.51 264.16 249.51 272.46 l 249.51 272.46 q 249.51 281.25 239.99 285.89 q 230.47 290.53 217.53 292.72 q 204.59 294.92 191.41 295.41 q 178.22 295.9 171.39 295.9 l 171.39 295.9 q 139.65 295.9 113.77 304.2 q 87.89 312.5 69.09 327.88 q 50.29 343.26 40.04 364.75 q 29.79 386.23 29.79 413.09 l 29.79 413.09 q 29.79 437.99 38.33 459.47 q 46.88 480.96 62.26 498.54 q 77.64 516.11 98.88 529.54 q 120.12 542.97 145.02 551.76 l 145.02 551.76 l 137.21 757.81 l 189.94 752.93 l 189.94 563.48 q 196.78 564.94 203.13 565.67 q 209.47 566.41 216.31 567.38 l 216.31 567.38 l 215.33 757.81 l 268.07 756.84 l 261.23 567.38 q 293.46 566.41 326.17 561.28 q 358.89 556.15 386.23 544.92 l 386.23 544.92 l 373.54 420.9 q 347.66 427.73 320.31 432.62 q 292.97 437.5 268.07 437.5 l 268.07 437.5 q 260.25 437.5 247.31 437.01 q 234.38 436.52 221.92 434.08 q 209.47 431.64 200.44 426.76 q 191.41 421.88 191.89 413.09 l 191.89 413.09 q 192.38 405.76 198.24 402.1 q 204.1 398.44 213.13 396.73 q 222.17 395.02 233.4 395.02 q 244.63 395.02 255.13 395.51 q 265.63 396 274.9 396.48 q 284.18 396.97 289.55 396.48 l 289.55 396.48 q 318.85 395.02 342.29 386.23 q 365.72 377.44 382.32 362.55 q 398.93 347.66 407.71 327.15 q 416.5 306.64 416.5 282.23 l 416.5 282.23 q 416.5 248.05 405.03 221.68 q 393.55 195.31 373.05 176.03 q 352.54 156.74 323.97 144.29 q 295.41 131.84 261.23 125.98 l 261.23 125.98 l 269.04 -66.41 l 221.19 -71.29 l 219.24 121.09 q 212.4 120.12 205.57 120.12 q 198.73 120.12 191.89 120.12 l 191.89 120.12 l 189.94 120.12 l 190.92 -70.31"},"%":{"x_min":20.02,"x_max":704.59,"ha":724.61,"o":"m 704.59 208.01 l 704.59 208.01 q 704.59 182.13 693.85 156.98 q 683.11 131.84 662.6 112.06 q 642.09 92.29 613.04 79.83 q 583.98 67.38 547.36 67.38 l 547.36 67.38 q 511.23 67.38 482.18 79.83 q 453.13 92.29 432.86 112.06 q 412.6 131.84 401.86 156.98 q 391.11 182.13 391.11 208.01 l 391.11 208.01 q 391.11 233.4 401.86 258.79 q 412.6 284.18 432.86 303.96 q 453.13 323.73 482.18 336.18 q 511.23 348.63 547.36 348.63 l 547.36 348.63 q 583.98 348.63 613.04 336.18 q 642.09 323.73 662.6 303.96 q 683.11 284.18 693.85 258.79 q 704.59 233.4 704.59 208.01 m 594.24 208.98 l 594.24 208.98 q 594.24 216.8 591.55 225.83 q 588.87 234.86 583.01 242.92 q 577.15 250.98 568.12 256.35 q 559.08 261.72 546.39 261.72 l 546.39 261.72 q 533.69 261.72 524.41 256.35 q 515.14 250.98 509.28 242.92 q 503.42 234.86 500.49 225.83 q 497.56 216.8 497.56 208.98 l 497.56 208.98 q 497.56 201.17 500.49 192.14 q 503.42 183.11 509.28 175.05 q 515.14 166.99 524.41 161.62 q 533.69 156.25 546.39 156.25 l 546.39 156.25 q 559.08 156.25 568.12 161.62 q 577.15 166.99 583.01 175.05 q 588.87 183.11 591.55 192.14 q 594.24 201.17 594.24 208.98 m 333.5 450.2 l 333.5 450.2 q 333.5 424.32 322.75 399.17 q 312.01 374.02 291.5 354.25 q 271 334.47 241.94 322.02 q 212.89 309.57 176.27 309.57 l 176.27 309.57 q 140.14 309.57 111.08 322.02 q 82.03 334.47 61.77 354.25 q 41.5 374.02 30.76 399.17 q 20.02 424.32 20.02 450.2 l 20.02 450.2 q 20.02 475.59 30.76 500.98 q 41.5 526.37 61.77 546.14 q 82.03 565.92 111.08 578.37 q 140.14 590.82 176.27 590.82 l 176.27 590.82 q 212.89 590.82 241.94 578.37 q 271 565.92 291.5 546.14 q 312.01 526.37 322.75 500.98 q 333.5 475.59 333.5 450.2 m 223.14 451.17 l 223.14 451.17 q 223.14 458.98 220.46 468.02 q 217.77 477.05 211.91 485.11 q 206.05 493.16 197.02 498.54 q 187.99 503.91 175.29 503.91 l 175.29 503.91 q 162.6 503.91 153.32 498.54 q 144.04 493.16 138.18 485.11 q 132.32 477.05 129.39 468.02 q 126.46 458.98 126.46 451.17 l 126.46 451.17 q 126.46 443.36 129.39 434.33 q 132.32 425.29 138.18 417.24 q 144.04 409.18 153.32 403.81 q 162.6 398.44 175.29 398.44 l 175.29 398.44 q 187.99 398.44 197.02 403.81 q 206.05 409.18 211.91 417.24 q 217.77 425.29 220.46 434.33 q 223.14 443.36 223.14 451.17 m 458.5 638.67 l 528.81 607.42 q 466.31 471.19 412.84 330.32 q 359.38 189.45 312.99 45.9 l 312.99 45.9 l 211.43 83.01 q 240.23 153.81 268.8 224.37 q 297.36 294.92 327.39 364.75 q 357.42 434.57 389.65 503.17 q 421.88 571.78 458.5 638.67 l 458.5 638.67"},"&":{"x_min":7.81,"x_max":642.58,"ha":629.88,"o":"m 642.58 142.58 l 530.27 47.85 q 513.18 61.04 496.09 73.24 q 479 85.45 461.91 98.63 l 461.91 98.63 q 437.99 79.59 407.96 62.01 q 377.93 44.43 343.75 31.74 q 309.57 19.04 272.95 12.7 q 236.33 6.35 199.22 9.77 l 199.22 9.77 q 156.74 12.7 119.87 26.61 q 83.01 40.53 56.64 62.5 q 30.27 84.47 16.85 112.79 q 3.42 141.11 7.81 172.85 l 7.81 172.85 q 11.72 199.71 25.63 224.85 q 39.55 250 59.57 272.95 q 79.59 295.9 104.49 316.65 q 129.39 337.4 155.27 355.47 l 155.27 355.47 q 136.72 373.54 120.36 393.8 q 104 414.06 92.29 435.79 q 80.57 457.52 74.95 480.22 q 69.34 502.93 73.24 526.37 l 73.24 526.37 q 78.13 557.62 99.12 585.45 q 120.12 613.28 152.34 633.3 q 184.57 653.32 224.85 663.82 q 265.14 674.32 308.59 670.9 l 308.59 670.9 q 348.63 667.97 383.06 651.86 q 417.48 635.74 441.89 611.82 q 466.31 587.89 478.52 558.84 q 490.72 529.79 486.33 500.98 l 486.33 500.98 q 482.91 477.54 471.19 457.03 q 459.47 436.52 442.63 418.21 q 425.78 399.9 405.03 383.06 q 384.28 366.21 363.28 349.61 l 363.28 349.61 q 383.79 333.98 402.59 319.58 q 421.39 305.18 441.41 291.02 l 441.41 291.02 q 450.2 303.71 458.5 317.38 q 466.8 331.05 473.63 345.7 l 473.63 345.7 l 619.14 310.55 q 609.38 283.2 593.51 255.62 q 577.64 228.03 558.59 202.15 l 558.59 202.15 q 580.08 186.52 600.59 172.36 q 621.09 158.2 642.58 142.58 l 642.58 142.58 m 303.71 510.74 l 303.71 510.74 q 305.18 527.83 297.61 538.57 q 290.04 549.32 274.41 550.78 l 274.41 550.78 q 258.3 553.22 246.58 544.19 q 234.86 535.16 233.4 517.58 l 233.4 517.58 q 232.42 506.35 234.86 494.87 q 237.3 483.4 241.94 472.41 q 246.58 461.43 252.44 451.42 q 258.3 441.41 263.67 433.59 l 263.67 433.59 q 270.02 440.92 276.61 450.2 q 283.2 459.47 288.82 469.73 q 294.43 479.98 298.58 490.48 q 302.73 500.98 303.71 510.74 m 319.34 190.43 l 319.34 190.43 q 304.69 208.01 289.06 226.56 q 273.44 245.12 258.79 262.7 l 258.79 262.7 q 252.44 255.86 244.63 246.09 q 236.82 236.33 229.74 225.34 q 222.66 214.36 217.29 202.88 q 211.91 191.41 210.94 180.66 l 210.94 180.66 q 209.96 166.5 218.99 154.79 q 228.03 143.07 242.19 141.6 l 242.19 141.6 q 252.44 140.14 263.43 144.78 q 274.41 149.41 284.67 157.23 q 294.92 165.04 303.96 174.07 q 312.99 183.11 319.34 190.43"},"'":{"x_min":5.86,"x_max":241.21,"ha":232.42,"o":"m 5.86 784.18 l 241.21 789.06 l 186.52 492.19 l 36.13 487.3 l 5.86 784.18"},"(":{"x_min":13.18,"x_max":411.62,"ha":389.16,"o":"m 240.72 761.72 l 411.62 685.55 q 363.77 657.71 328.13 618.16 q 292.48 578.61 269.04 533.2 q 245.61 487.79 233.89 440.19 q 222.17 392.58 222.17 348.63 l 222.17 348.63 q 222.17 304.69 231.45 255.86 q 240.72 207.03 259.77 159.42 q 278.81 111.82 307.86 68.12 q 336.91 24.41 376.46 -9.77 l 376.46 -9.77 l 201.66 -81.05 q 166.02 -58.11 138.18 -26.37 q 110.35 5.37 89.36 42.24 q 68.36 79.1 53.96 119.63 q 39.55 160.16 30.52 200.44 q 21.48 240.72 17.33 279.54 q 13.18 318.36 13.18 352.54 l 13.18 352.54 q 13.18 405.76 27.83 463.13 q 42.48 520.51 71.04 575.44 q 99.61 630.37 142.09 678.71 q 184.57 727.05 240.72 761.72 l 240.72 761.72"},")":{"x_min":-29.3,"x_max":369.14,"ha":381.84,"o":"m 369.14 328.13 l 369.14 328.13 q 369.14 292.48 362.55 254.88 q 355.96 217.29 343.26 179.44 q 330.57 141.6 311.28 104.74 q 291.99 67.87 266.6 34.18 q 241.21 0.49 209.72 -28.81 q 178.22 -58.11 140.63 -81.05 l 140.63 -81.05 l -29.3 -4.88 q 18.07 23.44 53.22 62.99 q 88.38 102.54 111.08 147.71 q 133.79 192.87 145.02 240.48 q 156.25 288.09 156.25 332.03 l 156.25 332.03 q 156.25 376.46 147.22 425.29 q 138.18 474.12 119.63 521.73 q 101.07 569.34 72.51 613.04 q 43.95 656.74 4.88 691.41 l 4.88 691.41 l 178.71 761.72 q 214.36 738.28 242.43 706.3 q 270.51 674.32 291.5 637.45 q 312.5 600.59 327.39 560.3 q 342.29 520.02 351.56 479.74 q 360.84 439.45 364.99 400.63 q 369.14 361.82 369.14 328.13"},"*":{"x_min":20.02,"x_max":513.18,"ha":541.99,"o":"m 513.18 495.12 l 396 449.22 l 488.77 333.98 l 361.82 231.45 l 270.02 371.09 l 181.15 223.63 l 54.2 321.29 l 143.07 429.69 l 20.02 477.54 l 79.59 619.14 l 183.11 567.38 l 180.18 712.89 l 342.29 718.75 l 336.43 561.52 l 440.92 639.65 l 513.18 495.12"},"+":{"x_min":24.41,"x_max":429.69,"ha":455.57,"o":"m 303.71 108.4 l 149.41 110.35 l 148.44 238.28 l 26.37 240.23 l 24.41 386.72 l 146.48 390.63 l 146.48 505.86 l 297.85 521.48 l 299.8 397.46 l 427.73 401.37 l 429.69 234.38 l 301.76 236.33 l 303.71 108.4"},",":{"x_min":7.81,"x_max":212.92,"ha":222.66,"o":"m 212.89 111.33 l 212.89 108.4 q 212.4 85.45 202.88 57.62 q 193.36 29.79 175.78 2.69 q 158.2 -24.41 133.54 -48.58 q 108.89 -72.75 78.13 -88.87 l 78.13 -88.87 q 78.13 -88.38 77.64 -77.39 q 77.15 -66.41 76.42 -50.54 q 75.68 -34.67 74.71 -16.6 q 73.73 1.46 73.24 15.63 l 73.24 15.63 q 42.97 26.86 25.39 53.22 q 7.81 79.59 7.81 111.33 l 7.81 111.33 q 7.81 132.32 15.87 150.88 q 23.93 169.43 37.84 183.35 q 51.76 197.27 70.31 205.57 q 88.87 213.87 110.35 213.87 l 110.35 213.87 q 131.35 213.87 150.15 205.57 q 168.95 197.27 182.86 183.35 q 196.78 169.43 205.08 150.88 q 213.38 132.32 212.89 111.33 l 212.89 111.33"},"-":{"x_min":31.74,"x_max":349.12,"ha":382.32,"o":"m 349.12 263.67 l 33.69 269.53 l 31.74 416.02 l 347.17 430.66 l 349.12 263.67"},".":{"x_min":8.79,"x_max":213.87,"ha":221.68,"o":"m 213.87 100.59 l 213.87 100.59 q 213.87 79.1 205.57 60.55 q 197.27 41.99 183.35 28.08 q 169.43 14.16 150.88 6.1 q 132.32 -1.95 111.33 -1.95 l 111.33 -1.95 q 89.84 -1.95 71.29 6.1 q 52.73 14.16 38.82 28.08 q 24.9 41.99 16.85 60.55 q 8.79 79.1 8.79 100.59 l 8.79 100.59 q 8.79 121.58 16.85 140.63 q 24.9 159.67 38.82 173.58 q 52.73 187.5 71.29 195.8 q 89.84 204.1 111.33 204.1 l 111.33 204.1 q 132.32 204.1 150.88 195.8 q 169.43 187.5 183.35 173.58 q 197.27 159.67 205.57 140.63 q 213.87 121.58 213.87 100.59"},"/":{"x_min":20.02,"x_max":484.86,"ha":504.88,"o":"m 328.61 732.42 l 484.86 664.06 q 406.25 493.65 339.6 317.63 q 272.95 141.6 215.33 -38.09 l 215.33 -38.09 l 20.02 38.09 q 55.66 126.46 91.31 214.6 q 126.95 302.73 164.31 389.89 q 201.66 477.05 242.19 562.99 q 282.71 648.93 328.61 732.42 l 328.61 732.42"},":":{"x_min":21.48,"x_max":226.56,"ha":248.05,"o":"m 226.56 100.59 l 226.56 100.59 q 226.56 79.1 218.26 60.55 q 209.96 41.99 196.04 28.08 q 182.13 14.16 163.57 6.1 q 145.02 -1.95 124.02 -1.95 l 124.02 -1.95 q 102.54 -1.95 83.98 6.1 q 65.43 14.16 51.51 28.08 q 37.6 41.99 29.54 60.55 q 21.48 79.1 21.48 100.59 l 21.48 100.59 q 21.48 121.58 29.54 140.63 q 37.6 159.67 51.51 173.58 q 65.43 187.5 83.98 195.8 q 102.54 204.1 124.02 204.1 l 124.02 204.1 q 145.02 204.1 163.57 195.8 q 182.13 187.5 196.04 173.58 q 209.96 159.67 218.26 140.63 q 226.56 121.58 226.56 100.59 m 226.56 413.09 l 226.56 413.09 q 226.56 391.6 218.26 373.05 q 209.96 354.49 196.04 340.58 q 182.13 326.66 163.57 318.6 q 145.02 310.55 124.02 310.55 l 124.02 310.55 q 102.54 310.55 83.98 318.6 q 65.43 326.66 51.51 340.58 q 37.6 354.49 29.54 373.05 q 21.48 391.6 21.48 413.09 l 21.48 413.09 q 21.48 434.08 29.54 453.13 q 37.6 472.17 51.51 486.08 q 65.43 500 83.98 508.3 q 102.54 516.6 124.02 516.6 l 124.02 516.6 q 145.02 516.6 163.57 508.3 q 182.13 500 196.04 486.08 q 209.96 472.17 218.26 453.13 q 226.56 434.08 226.56 413.09"},";":{"x_min":20.51,"x_max":225.61,"ha":247.07,"o":"m 225.59 111.33 l 225.59 108.4 q 225.1 85.45 215.58 57.62 q 206.05 29.79 188.48 2.69 q 170.9 -24.41 146.24 -48.58 q 121.58 -72.75 90.82 -88.87 l 90.82 -88.87 q 90.82 -88.38 90.33 -77.39 q 89.84 -66.41 89.11 -50.54 q 88.38 -34.67 87.4 -16.6 q 86.43 1.46 85.94 15.63 l 85.94 15.63 q 55.66 26.86 38.09 53.22 q 20.51 79.59 20.51 111.33 l 20.51 111.33 q 20.51 132.32 28.56 150.88 q 36.62 169.43 50.54 183.35 q 64.45 197.27 83.01 205.57 q 101.56 213.87 123.05 213.87 l 123.05 213.87 q 144.04 213.87 162.84 205.57 q 181.64 197.27 195.56 183.35 q 209.47 169.43 217.77 150.88 q 226.07 132.32 225.59 111.33 l 225.59 111.33 m 225.59 413.09 l 225.59 413.09 q 225.59 391.6 217.29 373.05 q 208.98 354.49 195.07 340.58 q 181.15 326.66 162.6 318.6 q 144.04 310.55 123.05 310.55 l 123.05 310.55 q 101.56 310.55 83.01 318.6 q 64.45 326.66 50.54 340.58 q 36.62 354.49 28.56 373.05 q 20.51 391.6 20.51 413.09 l 20.51 413.09 q 20.51 434.08 28.56 453.13 q 36.62 472.17 50.54 486.08 q 64.45 500 83.01 508.3 q 101.56 516.6 123.05 516.6 l 123.05 516.6 q 144.04 516.6 162.6 508.3 q 181.15 500 195.07 486.08 q 208.98 472.17 217.29 453.13 q 225.59 434.08 225.59 413.09"},"<":{"x_min":21.97,"x_max":432.13,"ha":455.08,"o":"m 432.13 218.75 l 352.05 50.78 l 28.81 244.14 l 21.97 423.83 l 351.07 631.84 l 420.41 465.82 l 181.15 340.82 l 432.13 218.75"},"=":{"x_min":35.64,"x_max":353.03,"ha":390.63,"o":"m 353.03 122.07 l 37.6 142.58 l 35.64 289.06 l 351.07 289.06 l 353.03 122.07 m 353.03 332.03 l 37.6 337.89 l 35.64 484.38 l 351.07 499.02 l 353.03 332.03"},">":{"x_min":23.44,"x_max":433.59,"ha":455.08,"o":"m 433.59 259.77 l 103.52 50.78 l 33.2 218.75 l 273.44 343.75 l 23.44 465.82 l 102.54 631.84 l 425.78 440.43 l 433.59 259.77"},"?":{"x_min":20.02,"x_max":533.69,"ha":554.2,"o":"m 315.92 190.43 l 315.92 190.43 l 150.88 190.43 q 147.46 242.19 156.74 277.1 q 166.02 312.01 181.88 335.21 q 197.75 358.4 217.53 372.8 q 237.3 387.21 256.1 397.71 q 274.9 408.2 289.31 417.97 q 303.71 427.73 309.08 442.38 l 309.08 442.38 q 312.5 451.17 311.04 462.65 q 309.57 474.12 301.03 484.38 q 292.48 494.63 275.63 501.71 q 258.79 508.79 231.93 508.79 l 231.93 508.79 q 214.36 508.79 190.19 505.62 q 166.02 502.44 139.65 495.85 q 113.28 489.26 87.65 479.74 q 62.01 470.21 41.5 458.01 l 41.5 458.01 l 20.02 649.41 q 38.09 660.16 60.79 671.63 q 83.5 683.11 110.84 692.14 q 138.18 701.17 170.41 707.03 q 202.64 712.89 239.75 712.89 l 239.75 712.89 q 299.8 712.89 353.27 696.29 q 406.74 679.69 446.78 647.46 q 486.82 615.23 510.25 568.12 q 533.69 521 533.69 459.96 l 533.69 459.96 q 533.69 413.57 520.51 385.5 q 507.32 357.42 486.82 339.36 q 466.31 321.29 440.92 309.08 q 415.53 296.88 391.36 282.47 q 367.19 268.07 346.92 247.07 q 326.66 226.07 315.92 190.43 m 340.33 61.52 l 340.33 61.52 q 340.33 40.04 332.03 21.48 q 323.73 2.93 309.81 -10.99 q 295.9 -24.9 277.34 -32.96 q 258.79 -41.02 237.79 -41.02 l 237.79 -41.02 q 216.31 -41.02 197.75 -32.96 q 179.2 -24.9 165.28 -10.99 q 151.37 2.93 143.31 21.48 q 135.25 40.04 135.25 61.52 l 135.25 61.52 q 135.25 82.52 143.31 101.56 q 151.37 120.61 165.28 134.52 q 179.2 148.44 197.75 156.74 q 216.31 165.04 237.79 165.04 l 237.79 165.04 q 258.79 165.04 277.34 156.74 q 295.9 148.44 309.81 134.52 q 323.73 120.61 332.03 101.56 q 340.33 82.52 340.33 61.52"},"@":{"x_min":32.23,"x_max":642.58,"ha":664.55,"o":"m 642.58 375 l 642.58 375 q 642.58 281.25 603.76 232.91 q 564.94 184.57 489.26 183.59 l 489.26 183.59 q 460.45 182.62 438.96 187.26 q 417.48 191.89 402.83 198.97 q 388.18 206.05 380.13 214.36 q 372.07 222.66 370.12 229.49 l 370.12 229.49 q 359.86 213.38 343.51 207.76 q 327.15 202.15 311.52 202.15 l 311.52 202.15 q 287.11 202.15 265.38 208.98 q 243.65 215.82 227.54 230.22 q 211.43 244.63 201.9 266.85 q 192.38 289.06 192.38 319.34 l 192.38 319.34 q 192.38 347.17 201.42 367.92 q 210.45 388.67 226.56 402.59 q 242.68 416.5 264.4 423.58 q 286.13 430.66 311.52 430.66 l 311.52 430.66 q 330.57 430.66 348.63 421.14 q 366.7 411.62 377.93 388.67 l 377.93 388.67 l 377.93 438.48 l 481.45 439.45 l 478.52 262.7 l 491.21 264.65 q 498.54 266.6 504.39 275.39 l 504.39 275.39 q 509.28 282.71 513.43 298.34 q 517.58 313.96 517.58 341.8 l 517.58 341.8 q 517.58 385.25 504.88 416.02 q 492.19 446.78 468.26 466.31 q 444.34 485.84 409.67 494.87 q 375 503.91 331.05 503.91 l 331.05 503.91 q 283.2 503.42 245.61 485.35 l 245.61 485.35 q 229.49 477.54 214.11 465.33 q 198.73 453.13 186.77 434.81 q 174.8 416.5 167.48 391.11 q 160.16 365.72 160.16 332.03 l 160.16 332.03 q 160.16 290.53 169.19 261.23 q 178.22 231.93 192.87 212.16 q 207.52 192.38 226.32 180.91 q 245.12 169.43 265.14 163.57 l 265.14 163.57 q 311.04 150.39 370.12 161.13 l 370.12 161.13 l 370.12 68.36 q 299.8 53.71 238.28 64.94 q 176.76 76.17 130.86 110.35 q 84.96 144.53 58.59 199.71 q 32.23 254.88 32.23 328.13 l 32.23 328.13 q 32.23 399.9 51.27 450.68 q 70.31 501.46 100.34 535.64 q 130.37 569.82 167.24 589.6 q 204.1 609.38 240.23 619.63 q 276.37 629.88 307.37 632.81 q 338.38 635.74 356.45 635.74 l 356.45 635.74 q 422.36 635.74 475.34 615.23 q 528.32 594.73 565.43 559.57 q 602.54 524.41 622.56 476.81 q 642.58 429.2 642.58 375 m 299.8 323.24 l 299.8 323.24 q 299.8 304.69 307.37 292.48 q 314.94 280.27 331.05 280.27 l 331.05 280.27 q 347.17 280.27 357.67 292.48 q 368.16 304.69 368.16 323.24 l 368.16 323.24 q 368.16 340.33 357.67 348.39 q 347.17 356.45 331.05 356.45 l 331.05 356.45 q 299.8 356.45 299.8 323.24"},"A":{"x_min":-15.62,"x_max":640.63,"ha":625.98,"o":"m 450.2 699.22 l 640.63 41.99 l 398.44 10.74 l 369.14 121.09 l 257.81 121.09 l 233.4 10.74 l -15.62 35.16 l 178.71 685.55 l 450.2 699.22 m 278.32 270.51 l 351.56 270.51 l 314.45 440.43 l 278.32 270.51"},"B":{"x_min":25.88,"x_max":593.26,"ha":594.24,"o":"m 593.26 173.83 l 593.26 173.83 q 593.26 133.3 578.37 104 q 563.48 74.71 538.57 54.2 q 513.67 33.69 481.2 20.75 q 448.73 7.81 413.57 0.49 q 378.42 -6.84 343.02 -9.28 q 307.62 -11.72 276.86 -11.72 l 276.86 -11.72 q 246.58 -11.72 214.11 -9.52 q 181.64 -7.32 149.41 -1.95 q 117.19 3.42 85.94 12.45 q 54.69 21.48 26.86 35.16 l 26.86 35.16 l 25.88 664.06 q 53.22 675.29 83.98 684.33 q 114.75 693.36 146.73 699.46 q 178.71 705.57 210.45 708.74 q 242.19 711.91 271.97 711.91 l 271.97 711.91 q 306.64 711.91 342.04 707.52 q 377.44 703.13 410.16 692.87 q 442.87 682.62 471.19 666.26 q 499.51 649.9 520.75 625.98 q 541.99 602.05 553.96 570.31 q 565.92 538.57 565.92 497.07 l 565.92 497.07 q 565.92 469.73 558.11 445.8 q 550.29 421.88 535.64 402.83 q 521 383.79 500 370.36 q 479 356.93 452.64 350.59 l 452.64 350.59 q 484.38 342.29 510.5 326.17 q 536.62 310.06 554.93 287.11 q 573.24 264.16 583.25 235.35 q 593.26 206.54 593.26 173.83 m 345.21 452.15 l 345.21 452.15 q 345.21 466.31 339.36 476.32 q 333.5 486.33 324.95 492.68 q 316.41 499.02 306.4 501.95 q 296.39 504.88 288.57 504.88 l 288.57 504.88 q 278.81 504.88 269.53 501.95 q 260.25 499.02 251.46 495.12 l 251.46 495.12 l 248.54 386.72 q 259.77 386.72 276.37 388.67 q 292.97 390.63 308.35 397.22 q 323.73 403.81 334.47 416.75 q 345.21 429.69 345.21 452.15 m 275.88 292.97 l 275.88 292.97 q 261.72 292.97 248.54 290.04 l 248.54 290.04 l 246.58 178.71 q 253.91 177.25 260.99 176.03 q 268.07 174.8 274.9 174.8 l 274.9 174.8 q 285.16 174.8 297.36 177 q 309.57 179.2 320.31 185.79 q 331.05 192.38 338.13 203.61 q 345.21 214.84 345.21 233.4 l 345.21 233.4 q 345.21 251.95 338.13 263.67 q 331.05 275.39 320.8 281.98 q 310.55 288.57 298.34 290.77 q 286.13 292.97 275.88 292.97"},"C":{"x_min":6.84,"x_max":508.79,"ha":514.65,"o":"m 508.79 686.52 l 508.79 686.52 l 481.45 480.47 q 467.29 484.38 453.13 485.84 q 438.96 487.3 424.8 487.3 l 424.8 487.3 q 388.67 487.3 355.96 477.78 q 323.24 468.26 298.1 448.73 q 272.95 429.2 258.06 399.9 q 243.16 370.61 243.16 331.05 l 243.16 331.05 q 243.16 305.66 251.22 287.11 q 259.28 268.55 273.93 256.35 q 288.57 244.14 308.59 238.28 q 328.61 232.42 352.54 232.42 l 352.54 232.42 q 370.61 232.42 390.14 236.33 q 409.67 240.23 428.71 246.58 q 447.75 252.93 465.82 261.23 q 483.89 269.53 499.02 278.32 l 499.02 278.32 l 479.49 48.83 q 460.45 39.06 438.23 31.49 q 416.02 23.93 392.58 18.31 q 369.14 12.7 345.7 9.77 q 322.27 6.84 300.78 6.84 l 300.78 6.84 q 238.77 6.84 185.06 29.79 q 131.35 52.73 91.8 92.77 q 52.25 132.81 29.54 187.26 q 6.84 241.7 6.84 304.69 l 6.84 304.69 q 6.84 388.18 30.76 462.16 q 54.69 536.13 101.07 591.8 q 147.46 647.46 216.06 679.69 q 284.67 711.91 374.02 711.91 l 374.02 711.91 q 407.71 711.91 443.12 706.54 q 478.52 701.17 508.79 686.52"},"D":{"x_min":21.48,"x_max":578.13,"ha":582.52,"o":"m 578.13 387.7 l 578.13 387.7 q 578.13 319.34 560.55 264.4 q 542.97 209.47 511.47 166.75 q 479.98 124.02 436.52 93.26 q 393.07 62.5 341.31 42.72 q 289.55 22.95 231.2 13.43 q 172.85 3.91 111.33 3.91 l 111.33 3.91 q 88.38 3.91 66.41 5.13 q 44.43 6.35 21.48 8.79 l 21.48 8.79 l 35.16 664.06 q 88.87 681.15 145.75 688.23 q 202.64 695.31 258.79 695.31 l 258.79 695.31 q 328.61 695.31 387.21 674.32 q 445.8 653.32 488.28 613.77 q 530.76 574.22 554.44 517.09 q 578.13 459.96 578.13 387.7 m 377.93 349.61 l 377.93 356.45 q 378.42 382.81 372.31 407.23 q 366.21 431.64 352.29 450.44 q 338.38 469.24 316.89 480.71 q 295.41 492.19 265.63 493.16 l 265.63 493.16 l 246.09 190.43 q 275.39 194.82 299.32 209.72 q 323.24 224.61 340.58 246.34 q 357.91 268.07 367.43 294.68 q 376.95 321.29 377.93 349.61 l 377.93 349.61"},"E":{"x_min":21.48,"x_max":487.3,"ha":479,"o":"m 37.11 704.1 l 487.3 704.1 q 484.38 658.2 481.93 613.28 q 479.49 568.36 475.59 522.46 l 475.59 522.46 l 268.55 511.72 l 263.67 450.2 l 409.18 450.2 l 398.44 298.83 l 251.95 293.95 l 247.07 222.66 l 368.16 222.66 l 454.1 222.66 q 451.17 168.95 448 115.97 q 444.82 62.99 442.38 9.77 l 442.38 9.77 l 21.48 0 l 37.11 704.1"},"F":{"x_min":21.48,"x_max":487.3,"ha":487.3,"o":"m 37.11 704.1 l 487.3 704.1 q 484.38 658.2 481.93 613.28 q 479.49 568.36 475.59 522.46 l 475.59 522.46 l 268.55 511.72 l 268.55 450.2 l 448.24 450.2 l 438.48 298.83 l 267.58 293.95 l 268.55 4.88 l 21.48 0 l 37.11 704.1"},"G":{"x_min":3.91,"x_max":614.26,"ha":626.46,"o":"m 608.4 427.73 l 614.26 99.61 q 591.31 70.8 557.62 49.32 q 523.93 27.83 485.35 13.67 q 446.78 -0.49 406.25 -7.57 q 365.72 -14.65 329.1 -14.65 l 329.1 -14.65 q 258.3 -14.65 198.73 10.74 q 139.16 36.13 95.95 80.81 q 52.73 125.49 28.32 186.04 q 3.91 246.58 3.91 316.41 l 3.91 316.41 q 3.91 369.63 16.11 420.65 q 28.32 471.68 51.03 516.85 q 73.73 562.01 106.45 599.85 q 139.16 637.7 180.66 665.04 q 222.17 692.38 271.48 707.52 q 320.8 722.66 376.95 722.66 l 376.95 722.66 q 397.95 722.66 421.88 720.95 q 445.8 719.24 469.48 715.09 q 493.16 710.94 515.63 703.61 q 538.09 696.29 556.64 685.55 l 556.64 685.55 l 542.97 499.02 q 515.63 509.28 486.57 512.94 q 457.52 516.6 429.69 516.6 l 429.69 516.6 q 390.63 516.6 356.69 504.64 q 322.75 492.68 297.61 470.21 q 272.46 447.75 257.81 415.53 q 243.16 383.3 243.16 342.77 l 243.16 342.77 q 243.16 317.38 250 293.7 q 256.84 270.02 270.75 251.71 q 284.67 233.4 305.42 222.17 q 326.17 210.94 353.52 210.94 l 353.52 210.94 q 372.07 210.94 391.85 215.82 q 411.62 220.7 425.78 232.42 l 425.78 232.42 l 427.73 270.51 l 310.55 272.46 l 316.41 418.95 q 389.16 421.39 461.91 423.1 q 534.67 424.8 608.4 427.73 l 608.4 427.73"},"H":{"x_min":20.51,"x_max":604.49,"ha":625.98,"o":"m 588.87 696.29 l 604.49 0 l 360.35 -11.72 l 358.4 213.87 l 246.09 213.87 l 239.26 0 l 20.51 0 l 39.06 686.52 l 271.48 675.78 l 256.84 325.2 l 365.23 325.2 l 366.21 702.15 l 588.87 696.29"},"I":{"x_min":28.81,"x_max":288.57,"ha":297.36,"o":"m 28.81 673.83 l 288.57 687.5 l 234.86 22.46 l 28.81 11.72 l 28.81 673.83"},"J":{"x_min":-6.84,"x_max":491.21,"ha":509.77,"o":"m 491.21 402.34 l 491.21 402.34 q 491.21 373.54 491.21 345.21 q 491.21 316.89 488.28 288.09 l 488.28 288.09 q 482.91 227.05 461.91 172.61 q 440.92 118.16 405.03 77.15 q 369.14 36.13 317.87 12.21 q 266.6 -11.72 200.2 -11.72 l 200.2 -11.72 q 174.32 -11.72 146.24 -7.32 q 118.16 -2.93 90.58 5.86 q 62.99 14.65 37.84 27.59 q 12.7 40.53 -6.84 57.62 l -6.84 57.62 l 23.44 259.77 q 52.25 231.93 87.4 214.6 q 122.56 197.27 164.06 197.27 l 164.06 197.27 q 190.92 197.27 209.47 205.08 q 228.03 212.89 240.23 226.56 q 252.44 240.23 259.52 258.54 q 266.6 276.86 269.78 297.61 q 272.95 318.36 273.68 340.33 q 274.41 362.3 274.41 383.79 l 274.41 383.79 q 274.41 461.43 266.6 538.33 q 258.79 615.23 252.93 692.38 l 252.93 692.38 l 476.56 707.03 q 491.21 554.69 491.21 402.34"},"K":{"x_min":21,"x_max":644.04,"ha":614.26,"o":"m 397.95 718.75 l 644.04 699.22 l 408.69 374.02 l 606.93 28.32 l 380.37 -11.72 l 231.93 199.22 l 224.12 -21.48 l 21 -29.3 l 36.62 718.75 l 264.16 706.05 l 246.58 485.35 l 397.95 718.75"},"L":{"x_min":22.46,"x_max":454.1,"ha":452.15,"o":"m 454.1 278.32 l 454.1 278.32 l 433.59 61.52 l 22.46 29.3 q 25.39 199.71 29.05 368.16 q 32.71 536.62 38.09 707.03 l 38.09 707.03 l 291.99 707.03 q 280.76 600.1 270.51 493.41 q 260.25 386.72 255.86 278.32 l 255.86 278.32 q 278.81 277.34 301.27 277.34 q 323.73 277.34 346.68 277.34 l 346.68 277.34 q 374.02 277.34 400.39 277.83 q 426.76 278.32 454.1 278.32"},"M":{"x_min":23.93,"x_max":779.79,"ha":790.53,"o":"m 517.09 711.91 l 779.79 711.91 l 734.86 -4.88 l 512.21 -14.65 l 514.16 363.28 l 413.57 58.59 l 327.64 58.59 l 250.49 331.05 l 249.51 14.65 l 23.93 7.81 l 33.69 682.62 l 284.67 692.38 l 384.28 369.14 l 517.09 711.91"},"N":{"x_min":20.02,"x_max":688.96,"ha":703.61,"o":"m 458.5 692.38 l 688.96 700.2 l 653.81 38.09 l 397.95 14.65 l 261.23 369.14 l 239.75 7.81 l 20.02 7.81 l 37.6 700.2 l 281.74 711.91 l 450.68 360.35 l 458.5 692.38"},"O":{"x_min":8.3,"x_max":628.42,"ha":637.7,"o":"m 628.42 344.73 l 628.42 344.73 q 628.42 300.29 618.16 259.03 q 607.91 217.77 588.62 181.64 q 569.34 145.51 541.75 115.48 q 514.16 85.45 479.74 63.96 q 445.31 42.48 404.79 30.52 q 364.26 18.55 318.85 18.55 l 318.85 18.55 q 274.9 18.55 235.11 29.79 q 195.31 41.02 160.64 61.28 q 125.98 81.54 97.9 110.11 q 69.82 138.67 50.05 173.58 q 30.27 208.5 19.29 248.54 q 8.3 288.57 8.3 332.03 l 8.3 332.03 q 8.3 374.51 18.55 415.28 q 28.81 456.05 48.1 492.19 q 67.38 528.32 94.73 558.59 q 122.07 588.87 156.01 610.84 q 189.94 632.81 229.49 645.02 q 269.04 657.23 312.99 657.23 l 312.99 657.23 q 383.79 657.23 442.14 635.25 q 500.49 613.28 541.75 572.51 q 583.01 531.74 605.71 473.88 q 628.42 416.02 628.42 344.73 m 411.62 332.03 l 411.62 332.03 q 411.62 353.03 405.52 372.8 q 399.41 392.58 387.7 407.96 q 375.98 423.34 358.64 432.86 q 341.31 442.38 318.85 442.38 l 318.85 442.38 q 295.9 442.38 277.83 434.08 q 259.77 425.78 246.83 411.38 q 233.89 396.97 227.05 377.69 q 220.21 358.4 220.21 336.91 l 220.21 336.91 q 220.21 316.41 226.07 295.9 q 231.93 275.39 243.65 258.79 q 255.37 242.19 272.71 231.93 q 290.04 221.68 312.99 221.68 l 312.99 221.68 q 335.94 221.68 354.25 230.71 q 372.56 239.75 385.25 255.13 q 397.95 270.51 404.79 290.53 q 411.62 310.55 411.62 332.03"},"P":{"x_min":26.37,"x_max":593.75,"ha":595.7,"o":"m 593.75 469.73 l 593.75 469.73 q 593.75 422.36 579.59 385.74 q 565.43 349.12 540.77 321.78 q 516.11 294.43 482.91 275.39 q 449.71 256.35 411.87 244.38 q 374.02 232.42 333.5 226.81 q 292.97 221.19 253.91 220.7 l 253.91 220.7 l 253.91 -6.84 l 26.37 -6.84 q 26.37 104.98 26.86 215.82 q 27.34 326.66 28.32 439.45 l 28.32 439.45 q 29.3 499.02 28.81 558.59 q 28.32 618.16 31.25 678.71 l 31.25 678.71 q 93.75 697.27 156.25 706.54 q 218.75 715.82 285.16 715.82 l 285.16 715.82 q 322.75 715.82 360.35 709.72 q 397.95 703.61 432.37 690.43 q 466.8 677.25 496.34 657.47 q 525.88 637.7 547.36 610.35 q 568.85 583.01 581.3 548.1 q 593.75 513.18 593.75 469.73 m 376.95 453.13 l 376.95 453.13 q 376.95 484.86 357.67 502.69 q 338.38 520.51 307.62 520.51 l 307.62 520.51 q 297.36 520.51 286.38 518.8 q 275.39 517.09 265.63 514.65 l 265.63 514.65 l 259.77 372.07 q 266.6 371.09 272.95 371.09 q 279.3 371.09 286.13 371.09 l 286.13 371.09 q 303.71 371.09 320.07 376.95 q 336.43 382.81 349.12 393.8 q 361.82 404.79 369.38 419.68 q 376.95 434.57 376.95 453.13"},"Q":{"x_min":4.39,"x_max":681.15,"ha":690.92,"o":"m 681.15 363.28 l 681.15 363.28 q 681.15 289.06 653.56 221.68 q 625.98 154.3 570.8 103.52 l 570.8 103.52 l 638.18 23.44 l 459.47 -91.8 l 417.48 23.44 q 398.93 19.53 380.13 17.58 q 361.33 15.63 342.29 15.63 l 342.29 15.63 q 295.41 15.63 252.44 27.34 q 209.47 39.06 171.88 60.3 q 134.28 81.54 103.52 111.82 q 72.75 142.09 50.54 179.2 q 28.32 216.31 16.36 259.52 q 4.39 302.73 4.39 349.61 l 4.39 349.61 q 4.39 396 15.87 439.7 q 27.34 483.4 48.58 521.97 q 69.82 560.55 99.85 592.53 q 129.88 624.51 166.99 647.71 q 204.1 670.9 247.07 683.59 q 290.04 696.29 337.4 696.29 l 337.4 696.29 q 413.09 696.29 476.32 673.34 q 539.55 650.39 584.96 607.42 q 630.37 564.45 655.76 502.69 q 681.15 440.92 681.15 363.28 m 443.85 349.61 l 443.85 349.61 q 443.85 372.07 437.26 393.31 q 430.66 414.55 417.97 430.91 q 405.27 447.27 386.23 457.03 q 367.19 466.8 342.29 466.8 l 342.29 466.8 q 317.87 466.8 298.34 458.25 q 278.81 449.71 264.89 434.57 q 250.98 419.43 243.41 398.93 q 235.84 378.42 235.84 354.49 l 235.84 354.49 q 235.84 332.03 242.43 310.3 q 249.02 288.57 261.72 271.24 q 274.41 253.91 293.46 243.16 q 312.5 232.42 337.4 232.42 l 337.4 232.42 q 361.33 232.42 381.1 241.94 q 400.88 251.46 414.79 267.58 q 428.71 283.69 436.28 304.93 q 443.85 326.17 443.85 349.61"},"R":{"x_min":21,"x_max":597.17,"ha":605.96,"o":"m 597.17 470.7 l 597.17 470.7 q 597.17 432.62 590.58 401.61 q 583.98 370.61 569.82 344.73 q 555.66 318.85 533.2 296.88 q 510.74 274.9 479 254.88 l 479 254.88 l 595.21 47.85 l 375.49 4.88 l 300.29 212.89 l 239.75 210.94 l 230.96 7.81 l 21 7.81 q 23.44 119.14 25.63 229.49 q 27.83 339.84 30.76 451.17 l 30.76 451.17 q 31.74 507.32 32.71 562.5 q 33.69 617.68 36.62 673.83 l 36.62 673.83 q 70.8 686.52 104 694.82 q 137.21 703.13 170.65 707.76 q 204.1 712.4 238.53 714.11 q 272.95 715.82 309.08 715.82 l 309.08 715.82 q 364.75 715.82 416.75 700.44 q 468.75 685.06 508.79 654.3 q 548.83 623.54 573 577.64 q 597.17 531.74 597.17 470.7 m 378.42 455.08 l 378.42 455.08 q 378.42 475.59 372.8 492.68 q 367.19 509.77 356.2 522.22 q 345.21 534.67 328.86 541.75 q 312.5 548.83 290.53 548.83 l 290.53 548.83 q 280.76 548.83 271.48 547.61 q 262.21 546.39 253.42 543.95 l 253.42 543.95 l 245.61 362.3 l 257.32 362.3 q 278.32 362.3 300.05 367.68 q 321.78 373.05 339.11 384.28 q 356.45 395.51 367.43 413.09 q 378.42 430.66 378.42 455.08"},"S":{"x_min":13.18,"x_max":524.9,"ha":530.76,"o":"m 524.9 259.77 l 524.9 259.77 q 524.9 192.87 501.71 142.82 q 478.52 92.77 438.23 59.57 q 397.95 26.37 343.99 9.77 q 290.04 -6.84 228.03 -6.84 l 228.03 -6.84 q 204.1 -6.84 175.54 -0.49 q 146.97 5.86 117.68 15.38 q 88.38 24.9 61.28 35.89 q 34.18 46.88 13.18 56.64 l 13.18 56.64 l 34.67 257.81 q 76.17 232.91 126.71 219.97 q 177.25 207.03 226.07 207.03 l 226.07 207.03 q 235.35 207.03 248.54 207.76 q 261.72 208.5 273.68 212.16 q 285.64 215.82 293.95 223.14 q 302.25 230.47 302.25 244.14 l 302.25 244.14 q 302.25 253.42 296.39 260.01 q 290.53 266.6 281.25 270.75 q 271.97 274.9 260.25 277.1 q 248.54 279.3 237.3 280.27 q 226.07 281.25 216.31 281.25 q 206.54 281.25 200.68 281.25 l 200.68 281.25 q 158.69 281.25 124.27 295.9 q 89.84 310.55 65.19 336.67 q 40.53 362.79 26.86 398.68 q 13.18 434.57 13.18 476.56 l 13.18 476.56 q 13.18 534.18 36.38 579.83 q 59.57 625.49 98.39 657.47 q 137.21 689.45 187.5 706.54 q 237.79 723.63 291.5 723.63 l 291.5 723.63 q 315.43 723.63 340.82 721.92 q 366.21 720.21 391.36 715.82 q 416.5 711.43 440.43 704.59 q 464.36 697.75 485.84 687.5 l 485.84 687.5 l 467.29 489.26 q 434.08 500.49 397.71 508.06 q 361.33 515.63 326.66 515.63 l 326.66 515.63 q 320.31 515.63 310.3 515.38 q 300.29 515.14 289.31 513.92 q 278.32 512.7 267.09 510.25 q 255.86 507.81 247.07 503.66 q 238.28 499.51 232.91 492.68 q 227.54 485.84 228.03 476.56 l 228.03 476.56 q 228.52 465.82 236.08 459.23 q 243.65 452.64 255.62 448.97 q 267.58 445.31 281.98 443.85 q 296.39 442.38 310.55 442.14 q 324.71 441.89 336.91 442.14 q 349.12 442.38 356.93 441.41 l 356.93 441.41 q 396 438.96 427.25 424.8 q 458.5 410.64 480.22 387.21 q 501.95 363.77 513.43 331.3 q 524.9 298.83 524.9 259.77"},"T":{"x_min":2.93,"x_max":541.02,"ha":542.97,"o":"m 8.79 697.27 l 541.02 698.24 l 536.13 491.21 l 390.63 485.35 l 353.52 22.46 l 147.46 11.72 l 148.44 474.61 l 2.93 466.8 l 8.79 697.27"},"U":{"x_min":16.11,"x_max":608.89,"ha":623.05,"o":"m 608.89 542.97 l 608.89 542.97 q 608.89 506.84 605.47 463.38 q 602.05 419.92 594.24 373.54 q 586.43 327.15 573.97 279.54 q 561.52 231.93 542.97 187.99 q 524.41 144.04 499.76 105.71 q 475.1 67.38 443.12 38.82 q 411.13 10.25 371.58 -6.1 q 332.03 -22.46 283.69 -22.46 l 283.69 -22.46 q 227.05 -22.46 185.3 -4.15 q 143.55 14.16 113.77 45.17 q 83.98 76.17 64.94 117.43 q 45.9 158.69 35.16 204.83 q 24.41 250.98 20.26 299.07 q 16.11 347.17 16.11 391.6 l 16.11 391.6 q 16.11 459.96 22.95 528.08 q 29.79 596.19 42.48 664.06 l 42.48 664.06 l 271 655.27 q 257.81 578.61 248.29 501.22 q 238.77 423.83 238.77 345.7 l 238.77 345.7 q 238.77 337.4 239.5 321.04 q 240.23 304.69 242.19 284.42 q 244.14 264.16 247.8 242.92 q 251.46 221.68 257.81 204.1 q 264.16 186.52 273.19 175.29 q 282.23 164.06 294.43 164.06 l 294.43 164.06 q 308.59 164.06 319.82 177.49 q 331.05 190.92 339.6 213.38 q 348.14 235.84 354.49 265.14 q 360.84 294.43 365.23 326.17 q 369.63 357.91 372.31 389.65 q 375 421.39 376.71 448.73 q 378.42 476.07 378.91 497.07 q 379.39 518.07 379.39 528.32 l 379.39 528.32 q 379.39 566.41 378.17 604.25 q 376.95 642.09 374.51 679.69 l 374.51 679.69 l 603.03 679.69 q 608.89 612.3 608.89 542.97"},"V":{"x_min":-18.55,"x_max":622.07,"ha":612.79,"o":"m 397.46 699.22 l 622.07 684.57 l 443.36 4.88 l 201.17 -8.79 l -18.55 677.73 l 212.89 699.22 l 306.64 298.83 l 397.46 699.22"},"W":{"x_min":2.44,"x_max":905.76,"ha":907.71,"o":"m 664.55 699.22 l 905.76 677.73 l 791.5 0.98 l 514.16 -4.88 l 454.59 345.7 l 395.02 20.51 l 117.68 10.74 l 2.44 677.73 l 244.63 699.22 l 293.46 293.95 l 358.89 699.22 l 549.32 699.22 l 625.49 289.06 l 664.55 699.22"},"X":{"x_min":-21.97,"x_max":612.79,"ha":588.38,"o":"m 382.32 711.91 l 612.79 684.57 l 422.36 353.52 l 584.47 65.43 l 380.37 1.95 l 292.48 201.17 l 188.96 0.98 l -21.97 77.15 l 157.71 360.35 l -6.35 658.2 l 217.29 711.91 l 297.36 515.63 l 382.32 711.91"},"Y":{"x_min":5.86,"x_max":652.34,"ha":606.93,"o":"m 417.97 677.73 l 652.34 661.13 l 383.79 286.13 l 371.09 -19.53 l 139.65 -19.53 l 145.51 284.18 l 5.86 646.48 l 254.88 677.73 l 293.95 466.8 l 417.97 677.73"},"Z":{"x_min":5.86,"x_max":471.68,"ha":486.82,"o":"m 462.89 711.91 l 471.68 536.13 l 248.05 234.38 l 463.87 234.38 l 460.94 27.34 l 25.39 9.77 l 5.86 201.17 l 260.74 533.2 l 27.34 515.63 l 25.39 711.91 l 462.89 711.91"},"[":{"x_min":30.76,"x_max":369.63,"ha":365.72,"o":"m 369.63 757.81 l 359.86 628.91 l 229.98 631.84 l 215.33 68.36 l 352.05 67.38 l 351.07 -71.29 q 310.55 -68.85 269.53 -68.12 q 228.52 -67.38 187.01 -67.38 l 187.01 -67.38 q 148.93 -67.38 110.35 -68.36 q 71.78 -69.34 33.69 -72.27 l 33.69 -72.27 q 30.76 47.85 30.76 167.97 l 30.76 167.97 q 30.76 317.38 35.4 465.09 q 40.04 612.79 47.36 760.74 l 47.36 760.74 q 85.45 763.18 122.8 763.92 q 160.16 764.65 197.75 764.65 l 197.75 764.65 q 242.19 764.65 284.42 763.43 q 326.66 762.21 369.63 757.81 l 369.63 757.81"},"\\":{"x_min":21,"x_max":485.84,"ha":505.37,"o":"m 485.84 30.27 l 329.59 -38.09 q 283.69 44.92 243.16 130.86 q 202.64 216.8 165.28 303.96 q 127.93 391.11 92.29 479.49 q 56.64 567.87 21 656.25 l 21 656.25 l 216.31 732.42 q 273.93 552.73 340.58 376.71 q 407.23 200.68 485.84 30.27 l 485.84 30.27"},"]":{"x_min":-3.91,"x_max":334.96,"ha":365.23,"o":"m 334.96 526.37 l 334.96 526.37 q 334.96 376.95 330.32 229 q 325.68 81.05 317.38 -68.36 l 317.38 -68.36 q 279.79 -70.8 242.43 -71.53 q 205.08 -72.27 166.99 -72.27 l 166.99 -72.27 q 123.54 -72.27 81.3 -70.8 q 39.06 -69.34 -3.91 -65.43 l -3.91 -65.43 l 4.88 65.43 l 134.77 61.52 l 150.39 625.98 l 11.72 626.95 l 13.67 763.67 q 54.2 762.21 95.21 760.99 q 136.23 759.77 177.73 759.77 l 177.73 759.77 q 216.8 759.77 255.37 760.99 q 293.95 762.21 332.03 764.65 l 332.03 764.65 q 333.5 704.1 334.23 645.51 q 334.96 586.91 334.96 526.37"},"^":{"x_min":0,"x_max":485.35,"ha":485.35,"o":"m 485.35 350.59 l 304.69 314.45 q 304.2 313.96 300.05 328.61 q 295.9 343.26 289.55 364.99 q 283.2 386.72 275.88 412.35 q 268.55 437.99 262.45 460.21 q 256.35 482.42 252.2 497.31 q 248.05 512.21 248.05 512.7 l 248.05 512.7 q 230.47 467.77 214.36 422.12 q 198.24 376.46 183.59 330.08 l 183.59 330.08 l 0 373.05 q 11.23 399.9 27.1 434.81 q 42.97 469.73 60.55 506.35 q 78.13 542.97 95.21 577.88 q 112.3 612.79 125.98 640.14 q 139.65 667.48 148.19 684.33 q 156.74 701.17 157.23 701.17 l 157.23 701.17 l 340.82 705.08 q 340.33 704.59 348.14 686.52 q 355.96 668.46 368.41 638.92 q 380.86 609.38 396.73 571.78 q 412.6 534.18 428.71 494.87 q 444.82 455.57 459.72 417.97 q 474.61 380.37 485.35 350.59 l 485.35 350.59"},"_":{"x_min":-7.81,"x_max":309.57,"ha":301.76,"o":"m 309.57 -212.89 l -5.86 -207.03 l -7.81 -60.55 l 307.62 -45.9 l 309.57 -212.89"},"`":{"x_min":0,"x_max":283.2,"ha":283.2,"o":"m 283.2 732.42 l 217.77 666.99 q 164.06 707.52 110.35 742.19 q 56.64 776.86 0 810.55 l 0 810.55 l 96.68 924.8 q 135.74 888.18 171.39 853.52 l 171.39 853.52 q 186.52 838.38 202.39 822.27 q 218.26 806.15 233.15 790.28 q 248.05 774.41 260.99 759.52 q 273.93 744.63 283.2 732.42 l 283.2 732.42"},"a":{"x_min":-15.62,"x_max":640.63,"ha":625.98,"o":"m 450.2 699.22 l 640.63 41.99 l 398.44 10.74 l 369.14 121.09 l 257.81 121.09 l 233.4 10.74 l -15.62 35.16 l 178.71 685.55 l 450.2 699.22 m 278.32 270.51 l 351.56 270.51 l 314.45 440.43 l 278.32 270.51"},"b":{"x_min":25.88,"x_max":593.26,"ha":594.24,"o":"m 593.26 173.83 l 593.26 173.83 q 593.26 133.3 578.37 104 q 563.48 74.71 538.57 54.2 q 513.67 33.69 481.2 20.75 q 448.73 7.81 413.57 0.49 q 378.42 -6.84 343.02 -9.28 q 307.62 -11.72 276.86 -11.72 l 276.86 -11.72 q 246.58 -11.72 214.11 -9.52 q 181.64 -7.32 149.41 -1.95 q 117.19 3.42 85.94 12.45 q 54.69 21.48 26.86 35.16 l 26.86 35.16 l 25.88 664.06 q 53.22 675.29 83.98 684.33 q 114.75 693.36 146.73 699.46 q 178.71 705.57 210.45 708.74 q 242.19 711.91 271.97 711.91 l 271.97 711.91 q 306.64 711.91 342.04 707.52 q 377.44 703.13 410.16 692.87 q 442.87 682.62 471.19 666.26 q 499.51 649.9 520.75 625.98 q 541.99 602.05 553.96 570.31 q 565.92 538.57 565.92 497.07 l 565.92 497.07 q 565.92 469.73 558.11 445.8 q 550.29 421.88 535.64 402.83 q 521 383.79 500 370.36 q 479 356.93 452.64 350.59 l 452.64 350.59 q 484.38 342.29 510.5 326.17 q 536.62 310.06 554.93 287.11 q 573.24 264.16 583.25 235.35 q 593.26 206.54 593.26 173.83 m 345.21 452.15 l 345.21 452.15 q 345.21 466.31 339.36 476.32 q 333.5 486.33 324.95 492.68 q 316.41 499.02 306.4 501.95 q 296.39 504.88 288.57 504.88 l 288.57 504.88 q 278.81 504.88 269.53 501.95 q 260.25 499.02 251.46 495.12 l 251.46 495.12 l 248.54 386.72 q 259.77 386.72 276.37 388.67 q 292.97 390.63 308.35 397.22 q 323.73 403.81 334.47 416.75 q 345.21 429.69 345.21 452.15 m 275.88 292.97 l 275.88 292.97 q 261.72 292.97 248.54 290.04 l 248.54 290.04 l 246.58 178.71 q 253.91 177.25 260.99 176.03 q 268.07 174.8 274.9 174.8 l 274.9 174.8 q 285.16 174.8 297.36 177 q 309.57 179.2 320.31 185.79 q 331.05 192.38 338.13 203.61 q 345.21 214.84 345.21 233.4 l 345.21 233.4 q 345.21 251.95 338.13 263.67 q 331.05 275.39 320.8 281.98 q 310.55 288.57 298.34 290.77 q 286.13 292.97 275.88 292.97"},"c":{"x_min":7.32,"x_max":501.46,"ha":512.7,"o":"m 490.72 666.99 l 490.72 666.99 l 473.14 460.94 q 458.98 464.84 445.31 466.31 q 431.64 467.77 417.48 467.77 l 417.48 467.77 q 382.81 467.77 351.32 458.98 q 319.82 450.2 295.65 432.13 q 271.48 414.06 257.08 386.47 q 242.68 358.89 242.68 321.29 l 242.68 321.29 q 242.68 293.95 250.73 273.68 q 258.79 253.42 273.68 239.99 q 288.57 226.56 309.81 219.73 q 331.05 212.89 356.93 212.89 l 356.93 212.89 q 375 212.89 394.04 216.55 q 413.09 220.21 432.13 226.56 q 451.17 232.91 468.75 241.21 q 486.33 249.51 501.46 258.79 l 501.46 258.79 l 493.65 29.3 q 474.61 19.53 452.64 11.96 q 430.66 4.39 407.47 -1.22 q 384.28 -6.84 361.08 -9.77 q 337.89 -12.7 316.89 -12.7 l 316.89 -12.7 q 247.56 -12.7 190.67 13.18 q 133.79 39.06 93.02 83.74 q 52.25 128.42 29.79 187.5 q 7.32 246.58 7.32 313.48 l 7.32 313.48 q 7.32 393.55 30.03 462.89 q 52.73 532.23 96.92 583.25 q 141.11 634.28 206.3 663.33 q 271.48 692.38 355.96 692.38 l 355.96 692.38 q 389.65 692.38 424.32 687.01 q 458.98 681.64 490.72 666.99"},"d":{"x_min":21.48,"x_max":578.13,"ha":583.5,"o":"m 578.13 387.7 l 578.13 387.7 q 578.13 319.34 560.55 265.14 q 542.97 210.94 511.47 169.19 q 479.98 127.44 436.52 98.14 q 393.07 68.85 341.31 50.05 q 289.55 31.25 231.2 22.46 q 172.85 13.67 111.33 13.67 l 111.33 13.67 q 88.38 13.67 66.41 14.89 q 44.43 16.11 21.48 18.55 l 21.48 18.55 l 35.16 654.3 q 88.87 671.39 145.75 678.47 q 202.64 685.55 258.79 685.55 l 258.79 685.55 q 328.61 685.55 387.21 666.02 q 445.8 646.48 488.28 608.64 q 530.76 570.8 554.44 515.38 q 578.13 459.96 578.13 387.7 m 265.63 483.4 l 246.09 200.2 q 275.39 204.59 299.56 218.02 q 323.73 231.45 341.31 251.22 q 358.89 271 368.41 296.14 q 377.93 321.29 377.93 349.61 l 377.93 349.61 q 377.93 377.44 372.07 401.61 q 366.21 425.78 353.03 443.6 q 339.84 461.43 318.36 471.92 q 296.88 482.42 265.63 483.4 l 265.63 483.4"},"e":{"x_min":8.3,"x_max":569.82,"ha":576.66,"o":"m 569.82 394.53 l 569.82 394.53 q 569.82 352.05 563.96 309.57 l 563.96 309.57 q 480.47 304.2 397.95 292.24 q 315.43 280.27 232.91 268.55 l 232.91 268.55 q 245.61 233.4 272.71 212.4 q 299.8 191.41 337.4 191.41 l 337.4 191.41 q 356.93 191.41 380.13 198.73 q 403.32 206.05 426.27 217.04 q 449.22 228.03 470.21 240.72 q 491.21 253.42 506.35 263.67 l 506.35 263.67 l 482.91 41.99 q 463.87 27.34 441.65 17.09 q 419.43 6.84 395.51 0.49 q 371.58 -5.86 347.17 -8.79 q 322.75 -11.72 299.32 -11.72 l 299.32 -11.72 q 250.98 -11.72 210.94 1.46 q 170.9 14.65 138.43 38.33 q 105.96 62.01 81.54 94.24 q 57.13 126.46 41.02 164.55 q 24.9 202.64 16.6 245.12 q 8.3 287.6 8.3 331.05 l 8.3 331.05 q 8.3 376.46 16.6 421.88 q 24.9 467.29 41.75 509.28 q 58.59 551.27 84.23 587.16 q 109.86 623.05 144.04 649.9 q 178.22 676.76 221.44 691.89 q 264.65 707.03 316.89 707.03 l 316.89 707.03 q 360.35 707.03 396.24 695.07 q 432.13 683.11 460.21 661.87 q 488.28 640.63 509.03 611.33 q 529.79 582.03 543.21 547.12 q 556.64 512.21 563.23 473.39 q 569.82 434.57 569.82 394.53 m 374.51 409.18 l 374.51 419.92 q 374.51 433.59 371.58 448 q 368.65 462.4 362.06 474.12 q 355.47 485.84 344.73 493.41 q 333.98 500.98 317.87 500.98 l 317.87 500.98 q 298.34 500.98 283.45 490.48 q 268.55 479.98 257.81 464.11 q 247.07 448.24 240.23 429.69 q 233.4 411.13 229.98 395.51 l 229.98 395.51 l 374.51 409.18"},"f":{"x_min":21,"x_max":486.82,"ha":487.79,"o":"m 36.62 694.34 l 486.82 694.34 q 483.89 648.44 481.45 603.52 q 479 558.59 475.1 512.7 l 475.1 512.7 l 268.07 501.95 l 268.07 440.43 l 447.75 440.43 l 437.99 289.06 l 267.09 284.18 l 268.07 14.65 l 21 9.77 l 36.62 694.34"},"g":{"x_min":4.88,"x_max":615.23,"ha":627.44,"o":"m 609.38 427.73 l 615.23 109.38 q 592.29 80.57 558.59 59.08 q 524.9 37.6 486.33 23.44 q 447.75 9.28 407.23 2.2 q 366.7 -4.88 330.08 -4.88 l 330.08 -4.88 q 259.28 -4.88 199.71 19.04 q 140.14 42.97 96.92 85.69 q 53.71 128.42 29.3 187.5 q 4.88 246.58 4.88 316.41 l 4.88 316.41 q 4.88 369.63 17.09 419.92 q 29.3 470.21 52 514.16 q 74.71 558.11 107.42 594.73 q 140.14 631.35 181.64 657.71 q 223.14 684.08 272.71 698.49 q 322.27 712.89 377.93 712.89 l 377.93 712.89 q 398.93 712.89 422.85 711.18 q 446.78 709.47 470.46 705.32 q 494.14 701.17 516.6 693.85 q 539.06 686.52 557.62 675.78 l 557.62 675.78 l 543.95 489.26 q 516.6 499.51 487.55 503.17 q 458.5 506.84 430.66 506.84 l 430.66 506.84 q 391.6 506.84 357.67 496.34 q 323.73 485.84 298.58 465.33 q 273.44 444.82 258.79 414.06 q 244.14 383.3 244.14 342.77 l 244.14 342.77 q 244.14 317.38 250.98 293.7 q 257.81 270.02 271.73 251.71 q 285.64 233.4 306.4 222.17 q 327.15 210.94 354.49 210.94 l 354.49 210.94 q 373.05 210.94 392.82 215.82 q 412.6 220.7 426.76 232.42 l 426.76 232.42 l 428.71 270.51 l 311.52 272.46 l 317.38 418.95 q 390.14 421.39 462.89 423.1 q 535.64 424.8 609.38 427.73 l 609.38 427.73"},"h":{"x_min":20.51,"x_max":604.49,"ha":625.98,"o":"m 588.87 686.52 l 604.49 19.53 l 360.35 7.81 l 358.4 213.87 l 246.09 213.87 l 239.26 0 l 20.51 0 l 39.06 686.52 l 271.48 675.78 l 256.84 325.2 l 365.23 325.2 l 366.21 692.38 l 588.87 686.52"},"i":{"x_min":20.02,"x_max":279.79,"ha":294.43,"o":"m 20.02 673.83 l 279.79 687.5 l 245.61 22.46 l 39.55 11.72 l 20.02 673.83"},"j":{"x_min":-6.84,"x_max":491.21,"ha":509.77,"o":"m 491.21 402.34 l 491.21 402.34 q 491.21 373.54 491.21 345.21 q 491.21 316.89 488.28 288.09 l 488.28 288.09 q 482.91 227.05 461.91 172.61 q 440.92 118.16 405.03 77.15 q 369.14 36.13 317.87 12.21 q 266.6 -11.72 200.2 -11.72 l 200.2 -11.72 q 174.32 -11.72 146.24 -7.32 q 118.16 -2.93 90.58 5.86 q 62.99 14.65 37.84 27.59 q 12.7 40.53 -6.84 57.62 l -6.84 57.62 l 23.44 259.77 q 52.25 231.93 87.4 214.6 q 122.56 197.27 164.06 197.27 l 164.06 197.27 q 190.92 197.27 209.47 205.08 q 228.03 212.89 240.23 226.56 q 252.44 240.23 259.52 258.54 q 266.6 276.86 269.78 297.61 q 272.95 318.36 273.68 340.33 q 274.41 362.3 274.41 383.79 l 274.41 383.79 q 274.41 461.43 266.6 538.33 q 258.79 615.23 252.93 692.38 l 252.93 692.38 l 476.56 707.03 q 491.21 554.69 491.21 402.34"},"k":{"x_min":21.48,"x_max":625,"ha":602.54,"o":"m 388.67 689.45 l 625 630.86 l 409.18 374.02 l 607.42 38.09 l 380.86 -1.95 l 232.42 199.22 l 224.61 7.81 l 21.48 0 l 37.11 699.22 l 264.65 686.52 l 247.07 485.35 l 388.67 689.45"},"l":{"x_min":21.48,"x_max":453.13,"ha":451.17,"o":"m 254.88 258.79 l 453.13 258.79 l 432.62 41.99 l 21.48 9.77 l 37.11 707.03 l 291.02 707.03 l 254.88 258.79"},"m":{"x_min":8.3,"x_max":878.42,"ha":897.95,"o":"m 878.42 331.05 l 878.42 331.05 q 878.42 261.23 874.02 191.89 q 869.63 122.56 863.77 52.73 l 863.77 52.73 l 612.79 41.02 q 624.02 125.98 633.06 211.18 q 642.09 296.39 642.09 381.84 l 642.09 381.84 q 642.09 387.21 641.6 400.63 q 641.11 414.06 639.89 431.15 q 638.67 448.24 636.47 466.55 q 634.28 484.86 630.62 500.24 q 626.95 515.63 621.58 525.39 q 616.21 535.16 608.89 535.16 l 608.89 535.16 q 591.8 535.16 582.03 522.22 q 572.27 509.28 567.63 491.21 q 562.99 473.14 562.01 454.35 q 561.04 435.55 561.04 423.83 l 561.04 423.83 q 561.04 403.32 562.01 382.81 q 562.99 362.3 562.99 340.82 l 562.99 340.82 q 562.99 265.14 559.33 189.94 q 555.66 114.75 550.29 39.06 l 550.29 39.06 l 318.85 30.27 q 330.08 115.23 338.62 199.95 q 347.17 284.67 347.17 370.12 l 347.17 370.12 q 347.17 375.49 346.68 389.65 q 346.19 403.81 344.97 421.39 q 343.75 438.96 341.31 458.01 q 338.87 477.05 335.21 492.92 q 331.54 508.79 326.17 519.04 q 320.8 529.3 312.99 529.3 l 312.99 529.3 q 300.78 529.3 292.48 519.78 q 284.18 510.25 279.05 495.12 q 273.93 479.98 271.24 461.67 q 268.55 443.36 267.33 425.78 q 266.11 408.2 265.87 393.31 q 265.63 378.42 265.14 371.09 l 265.14 371.09 l 254.39 14.65 l 8.3 14.65 q 16.11 97.17 24.17 180.18 q 32.23 263.18 38.33 345.95 q 44.43 428.71 48.34 511.72 q 52.25 594.73 52.25 677.73 l 52.25 677.73 l 284.67 687.5 l 283.69 630.86 q 294.43 644.53 308.11 658.45 q 321.78 672.36 337.16 683.35 q 352.54 694.34 369.87 701.17 q 387.21 708.01 405.76 708.01 l 405.76 708.01 q 429.69 708.01 448.73 704.35 q 467.77 700.68 483.15 691.89 q 498.54 683.11 510.25 667.72 q 521.97 652.34 530.76 628.91 l 530.76 628.91 q 546.39 646 562.26 660.64 q 578.13 675.29 595.7 685.79 q 613.28 696.29 633.79 702.15 q 654.3 708.01 679.2 708.01 l 679.2 708.01 q 726.56 708.01 759.77 689.7 q 792.97 671.39 815.19 641.11 q 837.4 610.84 849.85 571.78 q 862.3 532.71 868.65 490.72 q 875 448.73 876.71 407.23 q 878.42 365.72 878.42 331.05"},"n":{"x_min":13.67,"x_max":630.86,"ha":651.86,"o":"m 630.86 247.07 l 630.86 247.07 q 630.86 191.89 629.64 137.94 q 628.42 83.98 625.98 29.3 l 625.98 29.3 l 344.73 34.18 q 359.38 120.61 370.12 206.79 q 380.86 292.97 380.86 380.86 l 380.86 380.86 q 380.86 387.21 380.37 401.37 q 379.88 415.53 378.42 433.35 q 376.95 451.17 374.27 469.97 q 371.58 488.77 366.94 504.39 q 362.3 520.02 355.71 530.03 q 349.12 540.04 339.84 540.04 l 339.84 540.04 q 323.24 540.04 311.77 530.27 q 300.29 520.51 292.72 505.13 q 285.16 489.75 280.76 470.7 q 276.37 451.66 274.17 432.62 q 271.97 413.57 271.24 396.73 q 270.51 379.88 270.51 369.14 l 270.51 369.14 q 268.07 282.71 266.6 197.51 q 265.14 112.3 262.7 25.39 l 262.7 25.39 l 13.67 14.65 q 23.44 187.01 32.47 357.42 q 41.5 527.83 46.88 700.2 l 46.88 700.2 l 277.34 711.91 l 275.39 633.79 q 289.06 650.39 304.93 665.04 q 320.8 679.69 338.87 690.19 q 356.93 700.68 377.2 706.79 q 397.46 712.89 419.92 712.89 l 419.92 712.89 q 461.43 712.89 492.68 699.22 q 523.93 685.55 546.39 662.11 q 568.85 638.67 583.98 606.69 q 599.12 574.71 608.4 538.57 q 617.68 502.44 622.56 463.13 q 627.44 423.83 629.15 385.74 q 630.86 347.66 630.86 312.01 q 630.86 276.37 630.86 247.07"},"o":{"x_min":8.3,"x_max":628.42,"ha":637.7,"o":"m 628.42 374.02 l 628.42 374.02 q 628.42 329.59 618.16 288.33 q 607.91 247.07 588.62 210.94 q 569.34 174.8 541.75 144.78 q 514.16 114.75 479.74 93.26 q 445.31 71.78 404.79 59.81 q 364.26 47.85 318.85 47.85 l 318.85 47.85 q 274.9 47.85 235.11 59.08 q 195.31 70.31 160.64 90.58 q 125.98 110.84 97.9 139.4 q 69.82 167.97 50.05 202.88 q 30.27 237.79 19.29 277.83 q 8.3 317.87 8.3 361.33 l 8.3 361.33 q 8.3 403.81 18.55 444.58 q 28.81 485.35 48.1 521.48 q 67.38 557.62 94.73 587.89 q 122.07 618.16 156.01 640.14 q 189.94 662.11 229.49 674.32 q 269.04 686.52 312.99 686.52 l 312.99 686.52 q 383.79 686.52 442.14 664.55 q 500.49 642.58 541.75 601.81 q 583.01 561.04 605.71 503.17 q 628.42 445.31 628.42 374.02 m 411.62 361.33 l 411.62 361.33 q 411.62 382.32 405.52 402.1 q 399.41 421.88 387.7 437.26 q 375.98 452.64 358.64 462.16 q 341.31 471.68 318.85 471.68 l 318.85 471.68 q 295.9 471.68 277.83 463.38 q 259.77 455.08 246.83 440.67 q 233.89 426.27 227.05 406.98 q 220.21 387.7 220.21 366.21 l 220.21 366.21 q 220.21 345.7 226.07 325.2 q 231.93 304.69 243.65 288.09 q 255.37 271.48 272.71 261.23 q 290.04 250.98 312.99 250.98 l 312.99 250.98 q 335.94 250.98 354.25 260.01 q 372.56 269.04 385.25 284.42 q 397.95 299.8 404.79 319.82 q 411.62 339.84 411.62 361.33"},"p":{"x_min":26.37,"x_max":593.75,"ha":596.68,"o":"m 593.75 450.2 l 593.75 450.2 q 593.75 402.83 579.59 366.21 q 565.43 329.59 540.77 302 q 516.11 274.41 482.91 255.62 q 449.71 236.82 411.87 224.85 q 374.02 212.89 333.5 207.28 q 292.97 201.66 253.91 201.17 l 253.91 201.17 l 253.91 -6.84 l 26.37 -6.84 q 26.37 48.83 26.61 101.56 q 26.86 154.3 27.1 206.3 q 27.34 258.3 27.59 311.04 q 27.83 363.77 28.32 419.92 l 28.32 419.92 q 29.3 479.49 28.81 539.06 q 28.32 598.63 31.25 659.18 l 31.25 659.18 q 93.75 677.73 156.25 687.01 q 218.75 696.29 285.16 696.29 l 285.16 696.29 q 322.75 696.29 360.35 690.19 q 397.95 684.08 432.37 670.9 q 466.8 657.71 496.34 637.94 q 525.88 618.16 547.36 590.82 q 568.85 563.48 581.3 528.32 q 593.75 493.16 593.75 450.2 m 376.95 433.59 l 376.95 433.59 q 376.95 465.33 357.67 483.15 q 338.38 500.98 307.62 500.98 l 307.62 500.98 q 297.36 500.98 286.38 499.27 q 275.39 497.56 265.63 495.12 l 265.63 495.12 l 259.77 352.54 q 266.6 351.56 272.95 351.56 q 279.3 351.56 286.13 351.56 l 286.13 351.56 q 303.71 351.56 320.07 357.42 q 336.43 363.28 349.12 374.27 q 361.82 385.25 369.38 400.15 q 376.95 415.04 376.95 433.59"},"q":{"x_min":4.39,"x_max":681.15,"ha":690.92,"o":"m 681.15 363.28 l 681.15 363.28 q 681.15 289.06 653.56 221.68 q 625.98 154.3 570.8 103.52 l 570.8 103.52 l 638.18 23.44 l 459.47 -91.8 l 417.48 23.44 q 398.93 19.53 380.13 17.58 q 361.33 15.63 342.29 15.63 l 342.29 15.63 q 295.41 15.63 252.44 27.34 q 209.47 39.06 171.88 60.3 q 134.28 81.54 103.52 111.82 q 72.75 142.09 50.54 179.2 q 28.32 216.31 16.36 259.52 q 4.39 302.73 4.39 349.61 l 4.39 349.61 q 4.39 396 15.87 439.7 q 27.34 483.4 48.58 521.97 q 69.82 560.55 99.85 592.53 q 129.88 624.51 166.99 647.71 q 204.1 670.9 247.07 683.59 q 290.04 696.29 337.4 696.29 l 337.4 696.29 q 413.09 696.29 476.32 673.34 q 539.55 650.39 584.96 607.42 q 630.37 564.45 655.76 502.69 q 681.15 440.92 681.15 363.28 m 443.85 349.61 l 443.85 349.61 q 443.85 372.07 437.26 393.31 q 430.66 414.55 417.97 430.91 q 405.27 447.27 386.23 457.03 q 367.19 466.8 342.29 466.8 l 342.29 466.8 q 317.87 466.8 298.34 458.25 q 278.81 449.71 264.89 434.57 q 250.98 419.43 243.41 398.93 q 235.84 378.42 235.84 354.49 l 235.84 354.49 q 235.84 332.03 242.43 310.3 q 249.02 288.57 261.72 271.24 q 274.41 253.91 293.46 243.16 q 312.5 232.42 337.4 232.42 l 337.4 232.42 q 361.33 232.42 381.1 241.94 q 400.88 251.46 414.79 267.58 q 428.71 283.69 436.28 304.93 q 443.85 326.17 443.85 349.61"},"r":{"x_min":21,"x_max":597.17,"ha":605.96,"o":"m 597.17 470.7 l 597.17 470.7 q 597.17 432.62 590.58 401.61 q 583.98 370.61 569.82 344.73 q 555.66 318.85 533.2 296.88 q 510.74 274.9 479 254.88 l 479 254.88 l 595.21 47.85 l 375.49 4.88 l 300.29 212.89 l 239.75 210.94 l 230.96 7.81 l 21 7.81 q 23.44 119.14 25.63 229.49 q 27.83 339.84 30.76 451.17 l 30.76 451.17 q 31.74 507.32 32.71 562.5 q 33.69 617.68 36.62 673.83 l 36.62 673.83 q 70.8 686.52 104 694.82 q 137.21 703.13 170.65 707.76 q 204.1 712.4 238.53 714.11 q 272.95 715.82 309.08 715.82 l 309.08 715.82 q 364.75 715.82 416.75 700.44 q 468.75 685.06 508.79 654.3 q 548.83 623.54 573 577.64 q 597.17 531.74 597.17 470.7 m 378.42 455.08 l 378.42 455.08 q 378.42 475.59 372.8 492.68 q 367.19 509.77 356.2 522.22 q 345.21 534.67 328.86 541.75 q 312.5 548.83 290.53 548.83 l 290.53 548.83 q 280.76 548.83 271.48 547.61 q 262.21 546.39 253.42 543.95 l 253.42 543.95 l 245.61 362.3 l 257.32 362.3 q 278.32 362.3 300.05 367.68 q 321.78 373.05 339.11 384.28 q 356.45 395.51 367.43 413.09 q 378.42 430.66 378.42 455.08"},"s":{"x_min":13.67,"x_max":525.39,"ha":531.74,"o":"m 525.39 250 l 525.39 250 q 525.39 183.11 502.2 134.52 q 479 85.94 438.72 54.44 q 398.44 22.95 344.48 8.06 q 290.53 -6.84 228.52 -6.84 l 228.52 -6.84 q 204.59 -6.84 176.03 -0.49 q 147.46 5.86 118.16 15.38 q 88.87 24.9 61.77 35.89 q 34.67 46.88 13.67 56.64 l 13.67 56.64 l 35.16 248.05 q 76.66 223.14 127.2 210.21 q 177.73 197.27 226.56 197.27 l 226.56 197.27 q 235.84 197.27 249.02 198 q 262.21 198.73 274.17 202.39 q 286.13 206.05 294.43 213.38 q 302.73 220.7 302.73 234.38 l 302.73 234.38 q 302.73 243.65 296.88 250.24 q 291.02 256.84 281.74 260.99 q 272.46 265.14 260.74 267.33 q 249.02 269.53 237.79 270.51 q 226.56 271.48 216.8 271.48 q 207.03 271.48 201.17 271.48 l 201.17 271.48 q 159.18 271.48 124.76 284.67 q 90.33 297.85 65.67 322.02 q 41.02 346.19 27.34 380.62 q 13.67 415.04 13.67 457.03 l 13.67 457.03 q 13.67 514.65 36.87 560.3 q 60.06 605.96 98.88 637.94 q 137.7 669.92 187.99 687.01 q 238.28 704.1 291.99 704.1 l 291.99 704.1 q 315.92 704.1 341.31 702.39 q 366.7 700.68 391.85 696.29 q 416.99 691.89 440.92 685.06 q 464.84 678.22 486.33 667.97 l 486.33 667.97 l 467.77 469.73 q 434.57 480.96 398.19 488.53 q 361.82 496.09 327.15 496.09 l 327.15 496.09 q 320.8 496.09 310.79 495.85 q 300.78 495.61 289.79 494.38 q 278.81 493.16 267.58 490.72 q 256.35 488.28 247.56 484.13 q 238.77 479.98 233.4 473.14 q 228.03 466.31 228.52 457.03 l 228.52 457.03 q 229 446.29 236.57 440.43 q 244.14 434.57 256.1 431.88 q 268.07 429.2 282.47 429.2 q 296.88 429.2 311.04 429.93 q 325.2 430.66 337.4 431.4 q 349.61 432.13 357.42 431.64 l 357.42 431.64 q 396.48 429.2 427.73 415.04 q 458.98 400.88 480.71 377.44 q 502.44 354 513.92 321.53 q 525.39 289.06 525.39 250"},"t":{"x_min":3.91,"x_max":541.99,"ha":544.92,"o":"m 9.77 687.5 l 541.99 688.48 l 537.11 481.45 l 391.6 475.59 l 374.02 22.46 l 167.97 11.72 l 149.41 464.84 l 3.91 457.03 l 9.77 687.5"},"u":{"x_min":17.09,"x_max":606.93,"ha":611.33,"o":"m 606.93 687.5 l 606.93 687.5 q 584.96 515.63 569.34 345.46 q 553.71 175.29 539.55 2.93 l 539.55 2.93 l 339.36 -11.72 l 348.14 63.48 q 338.38 52.25 325.44 43.95 q 312.5 35.64 297.85 30.52 q 283.2 25.39 267.58 23.19 q 251.95 21 237.79 21.48 l 237.79 21.48 q 204.59 21.97 175.29 34.42 q 146 46.88 121.58 67.63 q 97.17 88.38 77.64 115.97 q 58.11 143.55 44.68 174.07 q 31.25 204.59 24.17 236.33 q 17.09 268.07 17.09 297.85 l 17.09 297.85 q 17.09 341.8 18.8 388.92 q 20.51 436.04 24.9 483.4 q 29.3 530.76 36.38 577.15 q 43.46 623.54 54.2 666.02 l 54.2 666.02 q 113.77 663.09 173.83 660.64 q 233.89 658.2 293.46 659.18 l 293.46 659.18 q 282.23 616.7 271.24 573.97 q 260.25 531.25 251.46 488.04 q 242.68 444.82 237.3 401.37 q 231.93 357.91 231.93 313.48 l 231.93 313.48 q 231.93 303.22 232.91 284.18 q 233.89 265.14 238.04 246.58 q 242.19 228.03 250.73 214.11 q 259.28 200.2 274.9 200.2 l 274.9 200.2 q 293.46 200.2 308.11 216.06 q 322.75 231.93 333.98 258.79 q 345.21 285.64 353.27 320.8 q 361.33 355.96 366.94 394.29 q 372.56 432.62 375.98 471.68 q 379.39 510.74 381.1 545.17 q 382.81 579.59 383.54 606.93 q 384.28 634.28 384.28 649.41 l 384.28 649.41 q 384.28 659.18 383.79 668.46 q 383.3 677.73 382.32 687.5 l 382.32 687.5 q 414.06 686.52 445.31 686.04 q 476.56 685.55 508.3 685.55 l 508.3 685.55 q 532.71 685.55 557.37 685.79 q 582.03 686.04 606.93 687.5"},"v":{"x_min":-16.6,"x_max":624.02,"ha":614.26,"o":"m 399.41 699.22 l 624.02 684.57 l 445.31 24.41 l 203.13 10.74 l -16.6 648.44 l 214.84 669.92 l 308.59 298.83 l 399.41 699.22"},"w":{"x_min":3.42,"x_max":906.74,"ha":909.67,"o":"m 665.53 699.22 l 906.74 677.73 l 792.48 20.51 l 515.14 14.65 l 455.57 345.7 l 396 40.04 l 118.65 30.27 l 3.42 658.2 l 245.61 679.69 l 294.43 293.95 l 359.86 650.39 l 550.29 650.39 l 626.46 289.06 l 665.53 699.22"},"x":{"x_min":-19.04,"x_max":615.72,"ha":594.73,"o":"m 385.25 692.38 l 615.72 665.04 l 425.29 353.52 l 597.17 75.2 l 393.07 11.72 l 295.41 201.17 l 191.89 0.98 l -19.04 77.15 l 160.64 360.35 l -3.42 638.67 l 220.21 692.38 l 300.29 515.63 l 385.25 692.38"},"y":{"x_min":-19.53,"x_max":626.95,"ha":605.47,"o":"m 392.58 677.73 l 626.95 661.13 l 397.46 286.13 l 404.3 9.77 l 153.32 9.77 l 159.18 284.18 l -19.53 646.48 l 229.49 677.73 l 307.62 466.8 l 392.58 677.73"},"z":{"x_min":17.09,"x_max":482.91,"ha":495.61,"o":"m 474.12 692.38 l 482.91 516.6 l 259.28 234.38 l 465.33 234.38 l 472.17 27.34 l 36.62 9.77 l 17.09 201.17 l 271.97 513.67 l 19.04 496.09 l 17.09 692.38 l 474.12 692.38"},"{":{"x_min":-2.93,"x_max":435.55,"ha":410.16,"o":"m 435.55 737.3 l 382.81 607.42 q 356.93 618.16 328.13 618.16 l 328.13 618.16 q 297.85 618.16 283.2 606.93 q 268.55 595.7 268.55 574.22 l 268.55 574.22 q 268.55 557.62 273.19 541.99 q 277.83 526.37 283.2 510.99 q 288.57 495.61 293.21 479.98 q 297.85 464.36 297.85 448.24 l 297.85 448.24 q 297.85 407.71 269.29 387.94 q 240.72 368.16 188.48 368.16 l 188.48 368.16 q 214.36 362.79 236.08 350.59 q 257.81 338.38 273.19 322.02 q 288.57 305.66 297.12 286.13 q 305.66 266.6 305.66 247.07 l 305.66 247.07 q 305.66 230.47 300.05 214.6 q 294.43 198.73 287.6 183.11 q 280.76 167.48 275.15 151.61 q 269.53 135.74 269.53 119.14 l 269.53 119.14 q 269.53 103.52 279.79 91.06 q 290.04 78.61 305.91 69.82 q 321.78 61.04 341.06 55.91 q 360.35 50.78 378.91 48.83 l 378.91 48.83 l 306.64 -86.91 q 265.63 -87.89 226.81 -74.46 q 187.99 -61.04 157.96 -38.57 q 127.93 -16.11 109.86 12.94 q 91.8 41.99 91.8 72.27 l 91.8 72.27 q 91.8 89.36 97.66 105.96 q 103.52 122.56 110.84 138.92 q 118.16 155.27 124.02 171.88 q 129.88 188.48 129.88 206.05 l 129.88 206.05 q 129.88 224.12 117.68 239.01 q 105.47 253.91 86.18 263.67 q 66.89 273.44 43.21 277.83 q 19.53 282.23 -2.93 280.27 l -2.93 280.27 l 1.95 415.04 q 7.32 414.06 11.23 414.06 q 15.14 414.06 20.51 414.06 l 20.51 414.06 q 40.04 414.06 57.62 418.7 q 75.2 423.34 88.38 431.88 q 101.56 440.43 109.38 452.64 q 117.19 464.84 117.19 480.47 l 117.19 480.47 q 117.19 498.54 111.33 516.36 q 105.47 534.18 98.63 551.76 q 91.8 569.34 85.94 586.91 q 80.08 604.49 80.08 623.05 l 80.08 623.05 q 80.08 654.3 98.14 681.64 q 116.21 708.98 146 728.76 q 175.78 748.54 214.36 760.01 q 252.93 771.48 293.95 771.48 l 293.95 771.48 q 332.03 771.48 367.92 761.72 q 403.81 751.95 435.55 737.3 l 435.55 737.3"},"|":{"x_min":33.69,"x_max":252.44,"ha":287.11,"o":"m 252.44 -70.31 l 35.64 -70.31 l 33.69 757.81 l 252.44 752.93 l 252.44 -70.31"},"}":{"x_min":-33.2,"x_max":406.25,"ha":402.34,"o":"m 406.25 403.32 l 400.39 268.55 q 396.48 268.55 391.36 269.04 q 386.23 269.53 381.84 269.53 l 381.84 269.53 q 361.82 269.53 344.73 264.89 q 327.64 260.25 314.7 251.71 q 301.76 243.16 294.43 231.2 q 287.11 219.24 287.11 204.1 l 287.11 204.1 q 287.11 185.55 292.48 167.72 q 297.85 149.9 304.2 132.32 q 310.55 114.75 315.92 96.68 q 321.29 78.61 321.29 59.57 l 321.29 59.57 q 321.29 27.83 303.22 1.22 q 285.16 -25.39 255.62 -45.17 q 226.07 -64.94 187.74 -75.93 q 149.41 -86.91 109.38 -86.91 l 109.38 -86.91 q 71.29 -86.91 34.91 -77.64 q -1.46 -68.36 -33.2 -53.71 l -33.2 -53.71 l 19.53 77.15 q 32.71 71.78 46.88 68.6 q 61.04 65.43 75.2 65.43 l 75.2 65.43 q 104.49 65.43 120.12 76.9 q 135.74 88.38 135.74 110.35 l 135.74 110.35 q 135.74 126.46 130.62 142.09 q 125.49 157.71 119.63 173.1 q 113.77 188.48 108.64 204.1 q 103.52 219.73 103.52 236.33 l 103.52 236.33 q 103.52 275.39 132.32 295.9 q 161.13 316.41 214.84 315.43 l 214.84 315.43 q 187.99 320.31 166.02 332.52 q 144.04 344.73 128.42 360.84 q 112.79 376.95 104.25 396.24 q 95.7 415.53 95.7 435.55 l 95.7 435.55 q 95.7 452.64 101.56 468.75 q 107.42 484.86 114.26 500.49 q 121.09 516.11 126.95 532.23 q 132.81 548.34 132.81 565.43 l 132.81 565.43 q 132.81 581.05 122.56 593.02 q 112.3 604.98 96.44 613.53 q 80.57 622.07 61.04 627.2 q 41.5 632.32 23.44 634.77 l 23.44 634.77 l 94.73 771.48 q 136.23 771.97 174.8 758.54 q 213.38 745.12 243.41 722.66 q 273.44 700.2 291.5 671.14 q 309.57 642.09 309.57 612.3 l 309.57 612.3 q 309.57 595.21 303.71 578.61 q 297.85 562.01 291.02 545.41 q 284.18 528.81 278.32 511.96 q 272.46 495.12 272.46 477.54 l 272.46 477.54 q 272.46 458.98 284.91 444.58 q 297.36 430.18 316.89 420.41 q 336.43 410.64 360.11 406.01 q 383.79 401.37 406.25 403.32 l 406.25 403.32"},"~":{"x_min":14.65,"x_max":564.45,"ha":576.17,"o":"m 360.35 508.79 l 529.3 543.95 q 544.92 510.25 554.69 474.37 q 564.45 438.48 564.45 402.34 l 564.45 402.34 q 564.45 363.28 550.29 327.15 q 536.13 291.02 510.99 263.18 q 485.84 235.35 451.17 218.75 q 416.5 202.15 375.98 202.15 l 375.98 202.15 q 348.14 202.15 328.13 212.65 q 308.11 223.14 293.46 239.01 q 278.81 254.88 267.82 273.44 q 256.84 291.99 247.56 307.86 q 238.28 323.73 229 334.23 q 219.73 344.73 208.01 344.73 l 208.01 344.73 q 200.2 344.73 195.07 340.82 q 189.94 336.91 187.01 331.05 q 184.08 325.2 182.86 318.36 q 181.64 311.52 181.64 305.66 l 181.64 305.66 q 181.64 285.16 188.72 264.4 q 195.8 243.65 203.13 224.61 l 203.13 224.61 l 35.16 203.13 q 26.37 235.35 20.51 267.58 q 14.65 299.8 14.65 332.03 l 14.65 332.03 q 14.65 375 26.61 411.13 q 38.57 447.27 61.52 472.9 q 84.47 498.54 117.92 512.94 q 151.37 527.34 194.34 527.34 l 194.34 527.34 q 227.05 527.34 249.51 517.82 q 271.97 508.3 287.35 494.14 q 302.73 479.98 312.26 463.38 q 321.78 446.78 329.35 432.62 q 336.91 418.46 343.99 408.94 q 351.07 399.41 361.33 399.41 l 361.33 399.41 q 368.65 399.41 374.27 402.59 q 379.88 405.76 383.79 410.89 q 387.7 416.02 389.65 422.36 q 391.6 428.71 391.6 434.57 l 391.6 434.57 q 391.6 454.59 381.1 473.88 q 370.61 493.16 360.35 508.79 l 360.35 508.79"}}}
